# Tiled2Unity generated file. Do not modify by hand.
# Wavefront file for 'Church_mesh_0003.obj'

# Vertices (Count = 708)
v -160 -96 0
v -176 -96 0
v -176 -80 0
v -160 -80 0
v -144 -96 0
v -160 -96 0
v -160 -80 0
v -144 -80 0
v -128 -96 0
v -144 -96 0
v -144 -80 0
v -128 -80 0
v -112 -96 0
v -128 -96 0
v -128 -80 0
v -112 -80 0
v -80 -96 0
v -96 -96 0
v -96 -80 0
v -80 -80 0
v -64 -96 0
v -80 -96 0
v -80 -80 0
v -64 -80 0
v -48 -96 0
v -64 -96 0
v -64 -80 0
v -48 -80 0
v -160 -112 0
v -176 -112 0
v -176 -96 0
v -160 -96 0
v -128 -112 0
v -144 -112 0
v -144 -96 0
v -128 -96 0
v -80 -112 0
v -96 -112 0
v -96 -96 0
v -80 -96 0
v -48 -112 0
v -64 -112 0
v -64 -96 0
v -48 -96 0
v -160 -128 0
v -176 -128 0
v -176 -112 0
v -160 -112 0
v -48 -128 0
v -64 -128 0
v -64 -112 0
v -48 -112 0
v -832 -144 0
v -848 -144 0
v -848 -128 0
v -832 -128 0
v -816 -144 0
v -832 -144 0
v -832 -128 0
v -816 -128 0
v -736 -144 0
v -752 -144 0
v -752 -128 0
v -736 -128 0
v -720 -144 0
v -736 -144 0
v -736 -128 0
v -720 -128 0
v -160 -144 0
v -176 -144 0
v -176 -128 0
v -160 -128 0
v -144 -144 0
v -160 -144 0
v -160 -128 0
v -144 -128 0
v -64 -144 0
v -80 -144 0
v -80 -128 0
v -64 -128 0
v -48 -144 0
v -64 -144 0
v -64 -128 0
v -48 -128 0
v -832 -160 0
v -848 -160 0
v -848 -144 0
v -832 -144 0
v -816 -160 0
v -832 -160 0
v -832 -144 0
v -816 -144 0
v -736 -160 0
v -752 -160 0
v -752 -144 0
v -736 -144 0
v -720 -160 0
v -736 -160 0
v -736 -144 0
v -720 -144 0
v -160 -160 0
v -176 -160 0
v -176 -144 0
v -160 -144 0
v -144 -160 0
v -160 -160 0
v -160 -144 0
v -144 -144 0
v -128 -160 0
v -144 -160 0
v -144 -144 0
v -128 -144 0
v -80 -160 0
v -96 -160 0
v -96 -144 0
v -80 -144 0
v -64 -160 0
v -80 -160 0
v -80 -144 0
v -64 -144 0
v -48 -160 0
v -64 -160 0
v -64 -144 0
v -48 -144 0
v -832 -176 0
v -848 -176 0
v -848 -160 0
v -832 -160 0
v -816 -176 0
v -832 -176 0
v -832 -160 0
v -816 -160 0
v -736 -176 0
v -752 -176 0
v -752 -160 0
v -736 -160 0
v -720 -176 0
v -736 -176 0
v -736 -160 0
v -720 -160 0
v -160 -176 0
v -176 -176 0
v -176 -160 0
v -160 -160 0
v -144 -176 0
v -160 -176 0
v -160 -160 0
v -144 -160 0
v -128 -176 0
v -144 -176 0
v -144 -160 0
v -128 -160 0
v -80 -176 0
v -96 -176 0
v -96 -160 0
v -80 -160 0
v -64 -176 0
v -80 -176 0
v -80 -160 0
v -64 -160 0
v -48 -176 0
v -64 -176 0
v -64 -160 0
v -48 -160 0
v -800 -208 0
v -816 -208 0
v -816 -192 0
v -800 -192 0
v -752 -208 0
v -768 -208 0
v -768 -192 0
v -752 -192 0
v -128 -208 0
v -144 -208 0
v -144 -192 0
v -128 -192 0
v -80 -208 0
v -96 -208 0
v -96 -192 0
v -80 -192 0
v -800 -224 0
v -816 -224 0
v -816 -208 0
v -800 -208 0
v -752 -224 0
v -768 -224 0
v -768 -208 0
v -752 -208 0
v -320 -256 0
v -336 -256 0
v -336 -240 0
v -320 -240 0
v -304 -256 0
v -320 -256 0
v -320 -240 0
v -304 -240 0
v -288 -256 0
v -304 -256 0
v -304 -240 0
v -288 -240 0
v -128 -256 0
v -144 -256 0
v -144 -240 0
v -128 -240 0
v -320 -272 0
v -336 -272 0
v -336 -256 0
v -320 -256 0
v -304 -272 0
v -320 -272 0
v -320 -256 0
v -304 -256 0
v -288 -272 0
v -304 -272 0
v -304 -256 0
v -288 -256 0
v -384 -288 0
v -400 -288 0
v -400 -272 0
v -384 -272 0
v -368 -288 0
v -384 -288 0
v -384 -272 0
v -368 -272 0
v -352 -288 0
v -368 -288 0
v -368 -272 0
v -352 -272 0
v -592 -304 0
v -608 -304 0
v -608 -288 0
v -592 -288 0
v -576 -304 0
v -592 -304 0
v -592 -288 0
v -576 -288 0
v -560 -304 0
v -576 -304 0
v -576 -288 0
v -560 -288 0
v -544 -304 0
v -560 -304 0
v -560 -288 0
v -544 -288 0
v -384 -304 0
v -400 -304 0
v -400 -288 0
v -384 -288 0
v -368 -304 0
v -384 -304 0
v -384 -288 0
v -368 -288 0
v -352 -304 0
v -368 -304 0
v -368 -288 0
v -352 -288 0
v -752 -320 0
v -768 -320 0
v -768 -304 0
v -752 -304 0
v -608 -320 0
v -624 -320 0
v -624 -304 0
v -608 -304 0
v -528 -320 0
v -544 -320 0
v -544 -304 0
v -528 -304 0
v -448 -320 0
v -464 -320 0
v -464 -304 0
v -448 -304 0
v -432 -320 0
v -448 -320 0
v -448 -304 0
v -432 -304 0
v -416 -320 0
v -432 -320 0
v -432 -304 0
v -416 -304 0
v -128 -320 0
v -144 -320 0
v -144 -304 0
v -128 -304 0
v -752 -336 0
v -768 -336 0
v -768 -320 0
v -752 -320 0
v -608 -336 0
v -624 -336 0
v -624 -320 0
v -608 -320 0
v -528 -336 0
v -544 -336 0
v -544 -320 0
v -528 -320 0
v -448 -336 0
v -464 -336 0
v -464 -320 0
v -448 -320 0
v -432 -336 0
v -448 -336 0
v -448 -320 0
v -432 -320 0
v -416 -336 0
v -432 -336 0
v -432 -320 0
v -416 -320 0
v -128 -336 0
v -144 -336 0
v -144 -320 0
v -128 -320 0
v -608 -352 0
v -624 -352 0
v -624 -336 0
v -608 -336 0
v -528 -352 0
v -544 -352 0
v -544 -336 0
v -528 -336 0
v -608 -368 0
v -624 -368 0
v -624 -352 0
v -608 -352 0
v -528 -368 0
v -544 -368 0
v -544 -352 0
v -528 -352 0
v -752 -384 0
v -768 -384 0
v -768 -368 0
v -752 -368 0
v -592 -384 0
v -608 -384 0
v -608 -368 0
v -592 -368 0
v -576 -384 0
v -592 -384 0
v -592 -368 0
v -576 -368 0
v -560 -384 0
v -576 -384 0
v -576 -368 0
v -560 -368 0
v -544 -384 0
v -560 -384 0
v -560 -368 0
v -544 -368 0
v -128 -384 0
v -144 -384 0
v -144 -368 0
v -128 -368 0
v -752 -400 0
v -768 -400 0
v -768 -384 0
v -752 -384 0
v -128 -400 0
v -144 -400 0
v -144 -384 0
v -128 -384 0
v -640 -448 0
v -656 -448 0
v -656 -432 0
v -640 -432 0
v -624 -448 0
v -640 -448 0
v -640 -432 0
v -624 -432 0
v -608 -448 0
v -624 -448 0
v -624 -432 0
v -608 -432 0
v -592 -448 0
v -608 -448 0
v -608 -432 0
v -592 -432 0
v -576 -448 0
v -592 -448 0
v -592 -432 0
v -576 -432 0
v -560 -448 0
v -576 -448 0
v -576 -432 0
v -560 -432 0
v -544 -448 0
v -560 -448 0
v -560 -432 0
v -544 -432 0
v -528 -448 0
v -544 -448 0
v -544 -432 0
v -528 -432 0
v -752 -464 0
v -768 -464 0
v -768 -448 0
v -752 -448 0
v -128 -464 0
v -144 -464 0
v -144 -448 0
v -128 -448 0
v -752 -480 0
v -768 -480 0
v -768 -464 0
v -752 -464 0
v -128 -480 0
v -144 -480 0
v -144 -464 0
v -128 -464 0
v -608 -512 0
v -624 -512 0
v -624 -496 0
v -608 -496 0
v -592 -512 0
v -608 -512 0
v -608 -496 0
v -592 -496 0
v -576 -512 0
v -592 -512 0
v -592 -496 0
v -576 -496 0
v -560 -512 0
v -576 -512 0
v -576 -496 0
v -560 -496 0
v -544 -512 0
v -560 -512 0
v -560 -496 0
v -544 -496 0
v -528 -512 0
v -544 -512 0
v -544 -496 0
v -528 -496 0
v -752 -528 0
v -768 -528 0
v -768 -512 0
v -752 -512 0
v -128 -528 0
v -144 -528 0
v -144 -512 0
v -128 -512 0
v -608 -576 0
v -624 -576 0
v -624 -560 0
v -608 -560 0
v -560 -592 0
v -576 -592 0
v -576 -576 0
v -560 -576 0
v -528 -592 0
v -544 -592 0
v -544 -576 0
v -528 -576 0
v -800 -608 0
v -816 -608 0
v -816 -592 0
v -800 -592 0
v -624 -608 0
v -640 -608 0
v -640 -592 0
v -624 -592 0
v -80 -608 0
v -96 -608 0
v -96 -592 0
v -80 -592 0
v -800 -624 0
v -816 -624 0
v -816 -608 0
v -800 -608 0
v -576 -624 0
v -592 -624 0
v -592 -608 0
v -576 -608 0
v -80 -624 0
v -96 -624 0
v -96 -608 0
v -80 -608 0
v -528 -640 0
v -544 -640 0
v -544 -624 0
v -528 -624 0
v -608 -656 0
v -624 -656 0
v -624 -640 0
v -608 -640 0
v -800 -672 0
v -816 -672 0
v -816 -656 0
v -800 -656 0
v -576 -672 0
v -592 -672 0
v -592 -656 0
v -576 -656 0
v -528 -672 0
v -544 -672 0
v -544 -656 0
v -528 -656 0
v -800 -688 0
v -816 -688 0
v -816 -672 0
v -800 -672 0
v -80 -688 0
v -96 -688 0
v -96 -672 0
v -80 -672 0
v -800 -752 0
v -816 -752 0
v -816 -736 0
v -800 -736 0
v -96 -752 0
v -112 -752 0
v -112 -736 0
v -96 -736 0
v -80 -752 0
v -96 -752 0
v -96 -736 0
v -80 -736 0
v -864 -768 0
v -880 -768 0
v -880 -752 0
v -864 -752 0
v -848 -768 0
v -864 -768 0
v -864 -752 0
v -848 -752 0
v -832 -768 0
v -848 -768 0
v -848 -752 0
v -832 -752 0
v -816 -768 0
v -832 -768 0
v -832 -752 0
v -816 -752 0
v -800 -768 0
v -816 -768 0
v -816 -752 0
v -800 -752 0
v -736 -768 0
v -752 -768 0
v -752 -752 0
v -736 -752 0
v -720 -768 0
v -736 -768 0
v -736 -752 0
v -720 -752 0
v -704 -768 0
v -720 -768 0
v -720 -752 0
v -704 -752 0
v -688 -768 0
v -704 -768 0
v -704 -752 0
v -688 -752 0
v -336 -768 0
v -352 -768 0
v -352 -752 0
v -336 -752 0
v -320 -768 0
v -336 -768 0
v -336 -752 0
v -320 -752 0
v -304 -768 0
v -320 -768 0
v -320 -752 0
v -304 -752 0
v -176 -768 0
v -192 -768 0
v -192 -752 0
v -176 -752 0
v -160 -768 0
v -176 -768 0
v -176 -752 0
v -160 -752 0
v -80 -768 0
v -96 -768 0
v -96 -752 0
v -80 -752 0
v -64 -768 0
v -80 -768 0
v -80 -752 0
v -64 -752 0
v -48 -768 0
v -64 -768 0
v -64 -752 0
v -48 -752 0
v -32 -768 0
v -48 -768 0
v -48 -752 0
v -32 -752 0
v -16 -768 0
v -32 -768 0
v -32 -752 0
v -16 -752 0
v -864 -784 0
v -880 -784 0
v -880 -768 0
v -864 -768 0
v -336 -784 0
v -352 -784 0
v -352 -768 0
v -336 -768 0
v -320 -784 0
v -336 -784 0
v -336 -768 0
v -320 -768 0
v -304 -784 0
v -320 -784 0
v -320 -768 0
v -304 -768 0
v -192 -784 0
v -208 -784 0
v -208 -768 0
v -192 -768 0
v -16 -784 0
v -32 -784 0
v -32 -768 0
v -16 -768 0
v -864 -800 0
v -880 -800 0
v -880 -784 0
v -864 -784 0
v -16 -800 0
v -32 -800 0
v -32 -784 0
v -16 -784 0
v -864 -816 0
v -880 -816 0
v -880 -800 0
v -864 -800 0
v -848 -816 0
v -864 -816 0
v -864 -800 0
v -848 -800 0
v -832 -816 0
v -848 -816 0
v -848 -800 0
v -832 -800 0
v -816 -816 0
v -832 -816 0
v -832 -800 0
v -816 -800 0
v -800 -816 0
v -816 -816 0
v -816 -800 0
v -800 -800 0
v -784 -816 0
v -800 -816 0
v -800 -800 0
v -784 -800 0
v -768 -816 0
v -784 -816 0
v -784 -800 0
v -768 -800 0
v -752 -816 0
v -768 -816 0
v -768 -800 0
v -752 -800 0
v -736 -816 0
v -752 -816 0
v -752 -800 0
v -736 -800 0
v -720 -816 0
v -736 -816 0
v -736 -800 0
v -720 -800 0
v -704 -816 0
v -720 -816 0
v -720 -800 0
v -704 -800 0
v -688 -816 0
v -704 -816 0
v -704 -800 0
v -688 -800 0
v -144 -816 0
v -160 -816 0
v -160 -800 0
v -144 -800 0
v -128 -816 0
v -144 -816 0
v -144 -800 0
v -128 -800 0
v -112 -816 0
v -128 -816 0
v -128 -800 0
v -112 -800 0
v -96 -816 0
v -112 -816 0
v -112 -800 0
v -96 -800 0
v -80 -816 0
v -96 -816 0
v -96 -800 0
v -80 -800 0
v -64 -816 0
v -80 -816 0
v -80 -800 0
v -64 -800 0
v -48 -816 0
v -64 -816 0
v -64 -800 0
v -48 -800 0
v -32 -816 0
v -48 -816 0
v -48 -800 0
v -32 -800 0
v -16 -816 0
v -32 -816 0
v -32 -800 0
v -16 -800 0

# Texture cooridinates (Count = 6)
vt 0 0
vt 0.5 0
vt 0.5 1
vt 0 1
vt 1 0
vt 1 1

# Normal
vn 0 0 -1

# Mesh description
g Church_mesh_0003

# Faces
f 1/1/1 2/2/1 3/3/1 4/4/1
f 5/2/1 6/5/1 7/6/1 8/3/1
f 9/2/1 10/5/1 11/6/1 12/3/1
f 13/1/1 14/2/1 15/3/1 16/4/1
f 17/1/1 18/2/1 19/3/1 20/4/1
f 21/2/1 22/5/1 23/6/1 24/3/1
f 25/1/1 26/2/1 27/3/1 28/4/1
f 29/1/1 30/2/1 31/3/1 32/4/1
f 33/1/1 34/2/1 35/3/1 36/4/1
f 37/2/1 38/5/1 39/6/1 40/3/1
f 41/1/1 42/2/1 43/3/1 44/4/1
f 45/2/1 46/5/1 47/6/1 48/3/1
f 49/1/1 50/2/1 51/3/1 52/4/1
f 53/1/1 54/2/1 55/3/1 56/4/1
f 57/1/1 58/2/1 59/3/1 60/4/1
f 61/1/1 62/2/1 63/3/1 64/4/1
f 65/1/1 66/2/1 67/3/1 68/4/1
f 69/2/1 70/5/1 71/6/1 72/3/1
f 73/1/1 74/2/1 75/3/1 76/4/1
f 77/2/1 78/5/1 79/6/1 80/3/1
f 81/1/1 82/2/1 83/3/1 84/4/1
f 85/1/1 86/2/1 87/3/1 88/4/1
f 89/2/1 90/5/1 91/6/1 92/3/1
f 93/2/1 94/5/1 95/6/1 96/3/1
f 97/1/1 98/2/1 99/3/1 100/4/1
f 101/2/1 102/5/1 103/6/1 104/3/1
f 105/2/1 106/5/1 107/6/1 108/3/1
f 109/1/1 110/2/1 111/3/1 112/4/1
f 113/2/1 114/5/1 115/6/1 116/3/1
f 117/1/1 118/2/1 119/3/1 120/4/1
f 121/2/1 122/5/1 123/6/1 124/3/1
f 125/1/1 126/2/1 127/3/1 128/4/1
f 129/1/1 130/2/1 131/3/1 132/4/1
f 133/1/1 134/2/1 135/3/1 136/4/1
f 137/1/1 138/2/1 139/3/1 140/4/1
f 141/1/1 142/2/1 143/3/1 144/4/1
f 145/2/1 146/5/1 147/6/1 148/3/1
f 149/1/1 150/2/1 151/3/1 152/4/1
f 153/2/1 154/5/1 155/6/1 156/3/1
f 157/1/1 158/2/1 159/3/1 160/4/1
f 161/1/1 162/2/1 163/3/1 164/4/1
f 165/1/1 166/2/1 167/3/1 168/4/1
f 169/1/1 170/2/1 171/3/1 172/4/1
f 173/1/1 174/2/1 175/3/1 176/4/1
f 177/1/1 178/2/1 179/3/1 180/4/1
f 181/2/1 182/5/1 183/6/1 184/3/1
f 185/2/1 186/5/1 187/6/1 188/3/1
f 189/2/1 190/5/1 191/6/1 192/3/1
f 193/2/1 194/5/1 195/6/1 196/3/1
f 197/1/1 198/2/1 199/3/1 200/4/1
f 201/1/1 202/2/1 203/3/1 204/4/1
f 205/1/1 206/2/1 207/3/1 208/4/1
f 209/1/1 210/2/1 211/3/1 212/4/1
f 213/2/1 214/5/1 215/6/1 216/3/1
f 217/2/1 218/5/1 219/6/1 220/3/1
f 221/2/1 222/5/1 223/6/1 224/3/1
f 225/1/1 226/2/1 227/3/1 228/4/1
f 229/2/1 230/5/1 231/6/1 232/3/1
f 233/1/1 234/2/1 235/3/1 236/4/1
f 237/1/1 238/2/1 239/3/1 240/4/1
f 241/2/1 242/5/1 243/6/1 244/3/1
f 245/1/1 246/2/1 247/3/1 248/4/1
f 249/1/1 250/2/1 251/3/1 252/4/1
f 253/2/1 254/5/1 255/6/1 256/3/1
f 257/1/1 258/2/1 259/3/1 260/4/1
f 261/1/1 262/2/1 263/3/1 264/4/1
f 265/1/1 266/2/1 267/3/1 268/4/1
f 269/2/1 270/5/1 271/6/1 272/3/1
f 273/2/1 274/5/1 275/6/1 276/3/1
f 277/1/1 278/2/1 279/3/1 280/4/1
f 281/1/1 282/2/1 283/3/1 284/4/1
f 285/2/1 286/5/1 287/6/1 288/3/1
f 289/2/1 290/5/1 291/6/1 292/3/1
f 293/2/1 294/5/1 295/6/1 296/3/1
f 297/1/1 298/2/1 299/3/1 300/4/1
f 301/1/1 302/2/1 303/3/1 304/4/1
f 305/2/1 306/5/1 307/6/1 308/3/1
f 309/2/1 310/5/1 311/6/1 312/3/1
f 313/1/1 314/2/1 315/3/1 316/4/1
f 317/1/1 318/2/1 319/3/1 320/4/1
f 321/2/1 322/5/1 323/6/1 324/3/1
f 325/2/1 326/5/1 327/6/1 328/3/1
f 329/1/1 330/2/1 331/3/1 332/4/1
f 333/1/1 334/2/1 335/3/1 336/4/1
f 337/2/1 338/5/1 339/6/1 340/3/1
f 341/2/1 342/5/1 343/6/1 344/3/1
f 345/1/1 346/2/1 347/3/1 348/4/1
f 349/2/1 350/5/1 351/6/1 352/3/1
f 353/2/1 354/5/1 355/6/1 356/3/1
f 357/1/1 358/2/1 359/3/1 360/4/1
f 361/2/1 362/5/1 363/6/1 364/3/1
f 365/1/1 366/2/1 367/3/1 368/4/1
f 369/2/1 370/5/1 371/6/1 372/3/1
f 373/1/1 374/2/1 375/3/1 376/4/1
f 377/2/1 378/5/1 379/6/1 380/3/1
f 381/1/1 382/2/1 383/3/1 384/4/1
f 385/2/1 386/5/1 387/6/1 388/3/1
f 389/1/1 390/2/1 391/3/1 392/4/1
f 393/1/1 394/2/1 395/3/1 396/4/1
f 397/1/1 398/2/1 399/3/1 400/4/1
f 401/2/1 402/5/1 403/6/1 404/3/1
f 405/2/1 406/5/1 407/6/1 408/3/1
f 409/2/1 410/5/1 411/6/1 412/3/1
f 413/1/1 414/2/1 415/3/1 416/4/1
f 417/2/1 418/5/1 419/6/1 420/3/1
f 421/1/1 422/2/1 423/3/1 424/4/1
f 425/2/1 426/5/1 427/6/1 428/3/1
f 429/1/1 430/2/1 431/3/1 432/4/1
f 433/1/1 434/2/1 435/3/1 436/4/1
f 437/1/1 438/2/1 439/3/1 440/4/1
f 441/2/1 442/5/1 443/6/1 444/3/1
f 445/1/1 446/2/1 447/3/1 448/4/1
f 449/2/1 450/5/1 451/6/1 452/3/1
f 453/1/1 454/2/1 455/3/1 456/4/1
f 457/2/1 458/5/1 459/6/1 460/3/1
f 461/1/1 462/2/1 463/3/1 464/4/1
f 465/2/1 466/5/1 467/6/1 468/3/1
f 469/2/1 470/5/1 471/6/1 472/3/1
f 473/2/1 474/5/1 475/6/1 476/3/1
f 477/2/1 478/5/1 479/6/1 480/3/1
f 481/1/1 482/2/1 483/3/1 484/4/1
f 485/2/1 486/5/1 487/6/1 488/3/1
f 489/2/1 490/5/1 491/6/1 492/3/1
f 493/1/1 494/2/1 495/3/1 496/4/1
f 497/1/1 498/2/1 499/3/1 500/4/1
f 501/2/1 502/5/1 503/6/1 504/3/1
f 505/1/1 506/2/1 507/3/1 508/4/1
f 509/2/1 510/5/1 511/6/1 512/3/1
f 513/1/1 514/2/1 515/3/1 516/4/1
f 517/1/1 518/2/1 519/3/1 520/4/1
f 521/1/1 522/2/1 523/3/1 524/4/1
f 525/1/1 526/2/1 527/3/1 528/4/1
f 529/2/1 530/5/1 531/6/1 532/3/1
f 533/1/1 534/2/1 535/3/1 536/4/1
f 537/1/1 538/2/1 539/3/1 540/4/1
f 541/2/1 542/5/1 543/6/1 544/3/1
f 545/2/1 546/5/1 547/6/1 548/3/1
f 549/1/1 550/2/1 551/3/1 552/4/1
f 553/1/1 554/2/1 555/3/1 556/4/1
f 557/1/1 558/2/1 559/3/1 560/4/1
f 561/2/1 562/5/1 563/6/1 564/3/1
f 565/2/1 566/5/1 567/6/1 568/3/1
f 569/1/1 570/2/1 571/3/1 572/4/1
f 573/1/1 574/2/1 575/3/1 576/4/1
f 577/2/1 578/5/1 579/6/1 580/3/1
f 581/1/1 582/2/1 583/3/1 584/4/1
f 585/1/1 586/2/1 587/3/1 588/4/1
f 589/1/1 590/2/1 591/3/1 592/4/1
f 593/2/1 594/5/1 595/6/1 596/3/1
f 597/1/1 598/2/1 599/3/1 600/4/1
f 601/1/1 602/2/1 603/3/1 604/4/1
f 605/2/1 606/5/1 607/6/1 608/3/1
f 609/2/1 610/5/1 611/6/1 612/3/1
f 613/2/1 614/5/1 615/6/1 616/3/1
f 617/2/1 618/5/1 619/6/1 620/3/1
f 621/2/1 622/5/1 623/6/1 624/3/1
f 625/2/1 626/5/1 627/6/1 628/3/1
f 629/2/1 630/5/1 631/6/1 632/3/1
f 633/1/1 634/2/1 635/3/1 636/4/1
f 637/2/1 638/5/1 639/6/1 640/3/1
f 641/1/1 642/2/1 643/3/1 644/4/1
f 645/1/1 646/2/1 647/3/1 648/4/1
f 649/2/1 650/5/1 651/6/1 652/3/1
f 653/1/1 654/2/1 655/3/1 656/4/1
f 657/2/1 658/5/1 659/6/1 660/3/1
f 661/1/1 662/2/1 663/3/1 664/4/1
f 665/2/1 666/5/1 667/6/1 668/3/1
f 669/1/1 670/2/1 671/3/1 672/4/1
f 673/1/1 674/2/1 675/3/1 676/4/1
f 677/2/1 678/5/1 679/6/1 680/3/1
f 681/1/1 682/2/1 683/3/1 684/4/1
f 685/2/1 686/5/1 687/6/1 688/3/1
f 689/1/1 690/2/1 691/3/1 692/4/1
f 693/1/1 694/2/1 695/3/1 696/4/1
f 697/2/1 698/5/1 699/6/1 700/3/1
f 701/2/1 702/5/1 703/6/1 704/3/1
f 705/1/1 706/2/1 707/3/1 708/4/1

