# Tiled2Unity generated file. Do not modify by hand.
# Wavefront file for 'VanceField2_mesh_0002.obj'

# Vertices (Count = 440)
v -1744 -16 0
v -1760 -16 0
v -1760 0 0
v -1744 0 0
v -1744 -32 0
v -1760 -32 0
v -1760 -16 0
v -1744 -16 0
v -1744 -48 0
v -1760 -48 0
v -1760 -32 0
v -1744 -32 0
v -1744 -64 0
v -1760 -64 0
v -1760 -48 0
v -1744 -48 0
v -1744 -80 0
v -1760 -80 0
v -1760 -64 0
v -1744 -64 0
v -1744 -96 0
v -1760 -96 0
v -1760 -80 0
v -1744 -80 0
v -1744 -112 0
v -1760 -112 0
v -1760 -96 0
v -1744 -96 0
v -1744 -128 0
v -1760 -128 0
v -1760 -112 0
v -1744 -112 0
v -1744 -144 0
v -1760 -144 0
v -1760 -128 0
v -1744 -128 0
v -1744 -160 0
v -1760 -160 0
v -1760 -144 0
v -1744 -144 0
v -1744 -176 0
v -1760 -176 0
v -1760 -160 0
v -1744 -160 0
v -1744 -192 0
v -1760 -192 0
v -1760 -176 0
v -1744 -176 0
v -1744 -208 0
v -1760 -208 0
v -1760 -192 0
v -1744 -192 0
v -1744 -224 0
v -1760 -224 0
v -1760 -208 0
v -1744 -208 0
v -1744 -240 0
v -1760 -240 0
v -1760 -224 0
v -1744 -224 0
v -1744 -256 0
v -1760 -256 0
v -1760 -240 0
v -1744 -240 0
v -1744 -272 0
v -1760 -272 0
v -1760 -256 0
v -1744 -256 0
v -1744 -288 0
v -1760 -288 0
v -1760 -272 0
v -1744 -272 0
v -1744 -304 0
v -1760 -304 0
v -1760 -288 0
v -1744 -288 0
v -1744 -320 0
v -1760 -320 0
v -1760 -304 0
v -1744 -304 0
v -1744 -336 0
v -1760 -336 0
v -1760 -320 0
v -1744 -320 0
v -1744 -352 0
v -1760 -352 0
v -1760 -336 0
v -1744 -336 0
v -1744 -368 0
v -1760 -368 0
v -1760 -352 0
v -1744 -352 0
v -1744 -384 0
v -1760 -384 0
v -1760 -368 0
v -1744 -368 0
v -1744 -400 0
v -1760 -400 0
v -1760 -384 0
v -1744 -384 0
v -1744 -416 0
v -1760 -416 0
v -1760 -400 0
v -1744 -400 0
v -1744 -432 0
v -1760 -432 0
v -1760 -416 0
v -1744 -416 0
v -1744 -448 0
v -1760 -448 0
v -1760 -432 0
v -1744 -432 0
v -1744 -464 0
v -1760 -464 0
v -1760 -448 0
v -1744 -448 0
v -1744 -480 0
v -1760 -480 0
v -1760 -464 0
v -1744 -464 0
v -1744 -496 0
v -1760 -496 0
v -1760 -480 0
v -1744 -480 0
v -1744 -512 0
v -1760 -512 0
v -1760 -496 0
v -1744 -496 0
v -1744 -528 0
v -1760 -528 0
v -1760 -512 0
v -1744 -512 0
v -1744 -544 0
v -1760 -544 0
v -1760 -528 0
v -1744 -528 0
v -1744 -560 0
v -1760 -560 0
v -1760 -544 0
v -1744 -544 0
v -1744 -576 0
v -1760 -576 0
v -1760 -560 0
v -1744 -560 0
v -1744 -592 0
v -1760 -592 0
v -1760 -576 0
v -1744 -576 0
v -1744 -608 0
v -1760 -608 0
v -1760 -592 0
v -1744 -592 0
v -1744 -624 0
v -1760 -624 0
v -1760 -608 0
v -1744 -608 0
v -1744 -640 0
v -1760 -640 0
v -1760 -624 0
v -1744 -624 0
v -1744 -656 0
v -1760 -656 0
v -1760 -640 0
v -1744 -640 0
v -1744 -672 0
v -1760 -672 0
v -1760 -656 0
v -1744 -656 0
v -1744 -688 0
v -1760 -688 0
v -1760 -672 0
v -1744 -672 0
v -1744 -704 0
v -1760 -704 0
v -1760 -688 0
v -1744 -688 0
v -1744 -720 0
v -1760 -720 0
v -1760 -704 0
v -1744 -704 0
v -1744 -736 0
v -1760 -736 0
v -1760 -720 0
v -1744 -720 0
v -1744 -752 0
v -1760 -752 0
v -1760 -736 0
v -1744 -736 0
v -1744 -768 0
v -1760 -768 0
v -1760 -752 0
v -1744 -752 0
v -1744 -784 0
v -1760 -784 0
v -1760 -768 0
v -1744 -768 0
v -1744 -800 0
v -1760 -800 0
v -1760 -784 0
v -1744 -784 0
v -1744 -816 0
v -1760 -816 0
v -1760 -800 0
v -1744 -800 0
v -1744 -832 0
v -1760 -832 0
v -1760 -816 0
v -1744 -816 0
v -1744 -848 0
v -1760 -848 0
v -1760 -832 0
v -1744 -832 0
v -1744 -864 0
v -1760 -864 0
v -1760 -848 0
v -1744 -848 0
v -1744 -880 0
v -1760 -880 0
v -1760 -864 0
v -1744 -864 0
v -1744 -896 0
v -1760 -896 0
v -1760 -880 0
v -1744 -880 0
v -1744 -912 0
v -1760 -912 0
v -1760 -896 0
v -1744 -896 0
v -1744 -928 0
v -1760 -928 0
v -1760 -912 0
v -1744 -912 0
v -1744 -944 0
v -1760 -944 0
v -1760 -928 0
v -1744 -928 0
v -1744 -960 0
v -1760 -960 0
v -1760 -944 0
v -1744 -944 0
v -1744 -976 0
v -1760 -976 0
v -1760 -960 0
v -1744 -960 0
v -1744 -992 0
v -1760 -992 0
v -1760 -976 0
v -1744 -976 0
v -1744 -1008 0
v -1760 -1008 0
v -1760 -992 0
v -1744 -992 0
v -1744 -1024 0
v -1760 -1024 0
v -1760 -1008 0
v -1744 -1008 0
v -1744 -1040 0
v -1760 -1040 0
v -1760 -1024 0
v -1744 -1024 0
v -1744 -1056 0
v -1760 -1056 0
v -1760 -1040 0
v -1744 -1040 0
v -1744 -1072 0
v -1760 -1072 0
v -1760 -1056 0
v -1744 -1056 0
v -1744 -1088 0
v -1760 -1088 0
v -1760 -1072 0
v -1744 -1072 0
v -1744 -1104 0
v -1760 -1104 0
v -1760 -1088 0
v -1744 -1088 0
v -1744 -1120 0
v -1760 -1120 0
v -1760 -1104 0
v -1744 -1104 0
v -1744 -1136 0
v -1760 -1136 0
v -1760 -1120 0
v -1744 -1120 0
v -1744 -1152 0
v -1760 -1152 0
v -1760 -1136 0
v -1744 -1136 0
v -1744 -1168 0
v -1760 -1168 0
v -1760 -1152 0
v -1744 -1152 0
v -1744 -1184 0
v -1760 -1184 0
v -1760 -1168 0
v -1744 -1168 0
v -1744 -1200 0
v -1760 -1200 0
v -1760 -1184 0
v -1744 -1184 0
v -1744 -1216 0
v -1760 -1216 0
v -1760 -1200 0
v -1744 -1200 0
v -1744 -1232 0
v -1760 -1232 0
v -1760 -1216 0
v -1744 -1216 0
v -1744 -1248 0
v -1760 -1248 0
v -1760 -1232 0
v -1744 -1232 0
v -1744 -1264 0
v -1760 -1264 0
v -1760 -1248 0
v -1744 -1248 0
v -1744 -1280 0
v -1760 -1280 0
v -1760 -1264 0
v -1744 -1264 0
v -1744 -1296 0
v -1760 -1296 0
v -1760 -1280 0
v -1744 -1280 0
v -1744 -1312 0
v -1760 -1312 0
v -1760 -1296 0
v -1744 -1296 0
v -1744 -1328 0
v -1760 -1328 0
v -1760 -1312 0
v -1744 -1312 0
v -1744 -1344 0
v -1760 -1344 0
v -1760 -1328 0
v -1744 -1328 0
v -1744 -1360 0
v -1760 -1360 0
v -1760 -1344 0
v -1744 -1344 0
v -1744 -1376 0
v -1760 -1376 0
v -1760 -1360 0
v -1744 -1360 0
v -1744 -1392 0
v -1760 -1392 0
v -1760 -1376 0
v -1744 -1376 0
v -1744 -1408 0
v -1760 -1408 0
v -1760 -1392 0
v -1744 -1392 0
v -1744 -1424 0
v -1760 -1424 0
v -1760 -1408 0
v -1744 -1408 0
v -1744 -1440 0
v -1760 -1440 0
v -1760 -1424 0
v -1744 -1424 0
v -1744 -1456 0
v -1760 -1456 0
v -1760 -1440 0
v -1744 -1440 0
v -1744 -1472 0
v -1760 -1472 0
v -1760 -1456 0
v -1744 -1456 0
v -1744 -1488 0
v -1760 -1488 0
v -1760 -1472 0
v -1744 -1472 0
v -1744 -1504 0
v -1760 -1504 0
v -1760 -1488 0
v -1744 -1488 0
v -1744 -1520 0
v -1760 -1520 0
v -1760 -1504 0
v -1744 -1504 0
v -1744 -1536 0
v -1760 -1536 0
v -1760 -1520 0
v -1744 -1520 0
v -1744 -1552 0
v -1760 -1552 0
v -1760 -1536 0
v -1744 -1536 0
v -1744 -1568 0
v -1760 -1568 0
v -1760 -1552 0
v -1744 -1552 0
v -1744 -1584 0
v -1760 -1584 0
v -1760 -1568 0
v -1744 -1568 0
v -1744 -1600 0
v -1760 -1600 0
v -1760 -1584 0
v -1744 -1584 0
v -1744 -1616 0
v -1760 -1616 0
v -1760 -1600 0
v -1744 -1600 0
v -1744 -1632 0
v -1760 -1632 0
v -1760 -1616 0
v -1744 -1616 0
v -1744 -1648 0
v -1760 -1648 0
v -1760 -1632 0
v -1744 -1632 0
v -1744 -1664 0
v -1760 -1664 0
v -1760 -1648 0
v -1744 -1648 0
v -1744 -1680 0
v -1760 -1680 0
v -1760 -1664 0
v -1744 -1664 0
v -1744 -1696 0
v -1760 -1696 0
v -1760 -1680 0
v -1744 -1680 0
v -1744 -1712 0
v -1760 -1712 0
v -1760 -1696 0
v -1744 -1696 0
v -1744 -1728 0
v -1760 -1728 0
v -1760 -1712 0
v -1744 -1712 0
v -1744 -1744 0
v -1760 -1744 0
v -1760 -1728 0
v -1744 -1728 0
v -1744 -1760 0
v -1760 -1760 0
v -1760 -1744 0
v -1744 -1744 0

# Texture cooridinates (Count = 222)
vt 0.9909091 0.9909091
vt 1 0.9909091
vt 1 1
vt 0.9909091 1
vt 0.9909091 0.9818182
vt 1 0.9818182
vt 0.9909091 0.9727273
vt 1 0.9727273
vt 0.9909091 0.9636363
vt 1 0.9636363
vt 0.9909091 0.9545454
vt 1 0.9545454
vt 0.9909091 0.9454545
vt 1 0.9454545
vt 0.9909091 0.9363636
vt 1 0.9363636
vt 0.9909091 0.9272727
vt 1 0.9272727
vt 0.9909091 0.9181818
vt 1 0.9181818
vt 0.9909091 0.9090909
vt 1 0.9090909
vt 0.9909091 0.9
vt 1 0.9
vt 0.9909091 0.8909091
vt 1 0.8909091
vt 0.9909091 0.8818182
vt 1 0.8818182
vt 0.9909091 0.8727273
vt 1 0.8727273
vt 0.9909091 0.8636364
vt 1 0.8636364
vt 0.9909091 0.8545455
vt 1 0.8545455
vt 0.9909091 0.8454546
vt 1 0.8454546
vt 0.9909091 0.8363637
vt 1 0.8363637
vt 0.9909091 0.8272727
vt 1 0.8272727
vt 0.9909091 0.8181818
vt 1 0.8181818
vt 0.9909091 0.8090909
vt 1 0.8090909
vt 0.9909091 0.8
vt 1 0.8
vt 0.9909091 0.7909091
vt 1 0.7909091
vt 0.9909091 0.7818182
vt 1 0.7818182
vt 0.9909091 0.7727273
vt 1 0.7727273
vt 0.9909091 0.7636364
vt 1 0.7636364
vt 0.9909091 0.7545455
vt 1 0.7545455
vt 0.9909091 0.7454545
vt 1 0.7454545
vt 0.9909091 0.7363636
vt 1 0.7363636
vt 0.9909091 0.7272727
vt 1 0.7272727
vt 0.9909091 0.7181818
vt 1 0.7181818
vt 0.9909091 0.7090909
vt 1 0.7090909
vt 0.9909091 0.7
vt 1 0.7
vt 0.9909091 0.6909091
vt 1 0.6909091
vt 0.9909091 0.6818182
vt 1 0.6818182
vt 0.9909091 0.6727273
vt 1 0.6727273
vt 0.9909091 0.6636363
vt 1 0.6636363
vt 0.9909091 0.6545454
vt 1 0.6545454
vt 0.9909091 0.6454545
vt 1 0.6454545
vt 0.9909091 0.6363636
vt 1 0.6363636
vt 0.9909091 0.6272727
vt 1 0.6272727
vt 0.9909091 0.6181818
vt 1 0.6181818
vt 0.9909091 0.6090909
vt 1 0.6090909
vt 0.9909091 0.6
vt 1 0.6
vt 0.9909091 0.5909091
vt 1 0.5909091
vt 0.9909091 0.5818182
vt 1 0.5818182
vt 0.9909091 0.5727273
vt 1 0.5727273
vt 0.9909091 0.5636364
vt 1 0.5636364
vt 0.9909091 0.5545455
vt 1 0.5545455
vt 0.9909091 0.5454545
vt 1 0.5454545
vt 0.9909091 0.5363636
vt 1 0.5363636
vt 0.9909091 0.5272727
vt 1 0.5272727
vt 0.9909091 0.5181818
vt 1 0.5181818
vt 0.9909091 0.5090909
vt 1 0.5090909
vt 0.9909091 0.5
vt 1 0.5
vt 0.9909091 0.4909091
vt 1 0.4909091
vt 0.9909091 0.4818182
vt 1 0.4818182
vt 0.9909091 0.4727273
vt 1 0.4727273
vt 0.9909091 0.4636363
vt 1 0.4636363
vt 0.9909091 0.4545454
vt 1 0.4545454
vt 0.9909091 0.4454545
vt 1 0.4454545
vt 0.9909091 0.4363636
vt 1 0.4363636
vt 0.9909091 0.4272727
vt 1 0.4272727
vt 0.9909091 0.4181818
vt 1 0.4181818
vt 0.9909091 0.4090909
vt 1 0.4090909
vt 0.9909091 0.4
vt 1 0.4
vt 0.9909091 0.3909091
vt 1 0.3909091
vt 0.9909091 0.3818182
vt 1 0.3818182
vt 0.9909091 0.3727273
vt 1 0.3727273
vt 0.9909091 0.3636364
vt 1 0.3636364
vt 0.9909091 0.3545455
vt 1 0.3545455
vt 0.9909091 0.3454546
vt 1 0.3454546
vt 0.9909091 0.3363636
vt 1 0.3363636
vt 0.9909091 0.3272727
vt 1 0.3272727
vt 0.9909091 0.3181818
vt 1 0.3181818
vt 0.9909091 0.3090909
vt 1 0.3090909
vt 0.9909091 0.3
vt 1 0.3
vt 0.9909091 0.2909091
vt 1 0.2909091
vt 0.9909091 0.2818182
vt 1 0.2818182
vt 0.9909091 0.2727273
vt 1 0.2727273
vt 0.9909091 0.2636364
vt 1 0.2636364
vt 0.9909091 0.2545455
vt 1 0.2545455
vt 0.9909091 0.2454545
vt 1 0.2454545
vt 0.9909091 0.2363636
vt 1 0.2363636
vt 0.9909091 0.2272727
vt 1 0.2272727
vt 0.9909091 0.2181818
vt 1 0.2181818
vt 0.9909091 0.2090909
vt 1 0.2090909
vt 0.9909091 0.2
vt 1 0.2
vt 0.9909091 0.1909091
vt 1 0.1909091
vt 0.9909091 0.1818182
vt 1 0.1818182
vt 0.9909091 0.1727273
vt 1 0.1727273
vt 0.9909091 0.1636364
vt 1 0.1636364
vt 0.9909091 0.1545454
vt 1 0.1545454
vt 0.9909091 0.1454545
vt 1 0.1454545
vt 0.9909091 0.1363636
vt 1 0.1363636
vt 0.9909091 0.1272727
vt 1 0.1272727
vt 0.9909091 0.1181818
vt 1 0.1181818
vt 0.9909091 0.1090909
vt 1 0.1090909
vt 0.9909091 0.1
vt 1 0.1
vt 0.9909091 0.09090906
vt 1 0.09090906
vt 0.9909091 0.08181816
vt 1 0.08181816
vt 0.9909091 0.07272726
vt 1 0.07272726
vt 0.9909091 0.06363636
vt 1 0.06363636
vt 0.9909091 0.05454546
vt 1 0.05454546
vt 0.9909091 0.04545456
vt 1 0.04545456
vt 0.9909091 0.03636366
vt 1 0.03636366
vt 0.9909091 0.0272727
vt 1 0.0272727
vt 0.9909091 0.0181818
vt 1 0.0181818
vt 0.9909091 0.0090909
vt 1 0.0090909
vt 0.9909091 0
vt 1 0

# Normal
vn 0 0 -1

# Mesh description
g VanceField2_mesh_0002

# Faces
f 1/1/1 2/2/1 3/3/1 4/4/1
f 5/5/1 6/6/1 7/2/1 8/1/1
f 9/7/1 10/8/1 11/6/1 12/5/1
f 13/9/1 14/10/1 15/8/1 16/7/1
f 17/11/1 18/12/1 19/10/1 20/9/1
f 21/13/1 22/14/1 23/12/1 24/11/1
f 25/15/1 26/16/1 27/14/1 28/13/1
f 29/17/1 30/18/1 31/16/1 32/15/1
f 33/19/1 34/20/1 35/18/1 36/17/1
f 37/21/1 38/22/1 39/20/1 40/19/1
f 41/23/1 42/24/1 43/22/1 44/21/1
f 45/25/1 46/26/1 47/24/1 48/23/1
f 49/27/1 50/28/1 51/26/1 52/25/1
f 53/29/1 54/30/1 55/28/1 56/27/1
f 57/31/1 58/32/1 59/30/1 60/29/1
f 61/33/1 62/34/1 63/32/1 64/31/1
f 65/35/1 66/36/1 67/34/1 68/33/1
f 69/37/1 70/38/1 71/36/1 72/35/1
f 73/39/1 74/40/1 75/38/1 76/37/1
f 77/41/1 78/42/1 79/40/1 80/39/1
f 81/43/1 82/44/1 83/42/1 84/41/1
f 85/45/1 86/46/1 87/44/1 88/43/1
f 89/47/1 90/48/1 91/46/1 92/45/1
f 93/49/1 94/50/1 95/48/1 96/47/1
f 97/51/1 98/52/1 99/50/1 100/49/1
f 101/53/1 102/54/1 103/52/1 104/51/1
f 105/55/1 106/56/1 107/54/1 108/53/1
f 109/57/1 110/58/1 111/56/1 112/55/1
f 113/59/1 114/60/1 115/58/1 116/57/1
f 117/61/1 118/62/1 119/60/1 120/59/1
f 121/63/1 122/64/1 123/62/1 124/61/1
f 125/65/1 126/66/1 127/64/1 128/63/1
f 129/67/1 130/68/1 131/66/1 132/65/1
f 133/69/1 134/70/1 135/68/1 136/67/1
f 137/71/1 138/72/1 139/70/1 140/69/1
f 141/73/1 142/74/1 143/72/1 144/71/1
f 145/75/1 146/76/1 147/74/1 148/73/1
f 149/77/1 150/78/1 151/76/1 152/75/1
f 153/79/1 154/80/1 155/78/1 156/77/1
f 157/81/1 158/82/1 159/80/1 160/79/1
f 161/83/1 162/84/1 163/82/1 164/81/1
f 165/85/1 166/86/1 167/84/1 168/83/1
f 169/87/1 170/88/1 171/86/1 172/85/1
f 173/89/1 174/90/1 175/88/1 176/87/1
f 177/91/1 178/92/1 179/90/1 180/89/1
f 181/93/1 182/94/1 183/92/1 184/91/1
f 185/95/1 186/96/1 187/94/1 188/93/1
f 189/97/1 190/98/1 191/96/1 192/95/1
f 193/99/1 194/100/1 195/98/1 196/97/1
f 197/101/1 198/102/1 199/100/1 200/99/1
f 201/103/1 202/104/1 203/102/1 204/101/1
f 205/105/1 206/106/1 207/104/1 208/103/1
f 209/107/1 210/108/1 211/106/1 212/105/1
f 213/109/1 214/110/1 215/108/1 216/107/1
f 217/111/1 218/112/1 219/110/1 220/109/1
f 221/113/1 222/114/1 223/112/1 224/111/1
f 225/115/1 226/116/1 227/114/1 228/113/1
f 229/117/1 230/118/1 231/116/1 232/115/1
f 233/119/1 234/120/1 235/118/1 236/117/1
f 237/121/1 238/122/1 239/120/1 240/119/1
f 241/123/1 242/124/1 243/122/1 244/121/1
f 245/125/1 246/126/1 247/124/1 248/123/1
f 249/127/1 250/128/1 251/126/1 252/125/1
f 253/129/1 254/130/1 255/128/1 256/127/1
f 257/131/1 258/132/1 259/130/1 260/129/1
f 261/133/1 262/134/1 263/132/1 264/131/1
f 265/135/1 266/136/1 267/134/1 268/133/1
f 269/137/1 270/138/1 271/136/1 272/135/1
f 273/139/1 274/140/1 275/138/1 276/137/1
f 277/141/1 278/142/1 279/140/1 280/139/1
f 281/143/1 282/144/1 283/142/1 284/141/1
f 285/145/1 286/146/1 287/144/1 288/143/1
f 289/147/1 290/148/1 291/146/1 292/145/1
f 293/149/1 294/150/1 295/148/1 296/147/1
f 297/151/1 298/152/1 299/150/1 300/149/1
f 301/153/1 302/154/1 303/152/1 304/151/1
f 305/155/1 306/156/1 307/154/1 308/153/1
f 309/157/1 310/158/1 311/156/1 312/155/1
f 313/159/1 314/160/1 315/158/1 316/157/1
f 317/161/1 318/162/1 319/160/1 320/159/1
f 321/163/1 322/164/1 323/162/1 324/161/1
f 325/165/1 326/166/1 327/164/1 328/163/1
f 329/167/1 330/168/1 331/166/1 332/165/1
f 333/169/1 334/170/1 335/168/1 336/167/1
f 337/171/1 338/172/1 339/170/1 340/169/1
f 341/173/1 342/174/1 343/172/1 344/171/1
f 345/175/1 346/176/1 347/174/1 348/173/1
f 349/177/1 350/178/1 351/176/1 352/175/1
f 353/179/1 354/180/1 355/178/1 356/177/1
f 357/181/1 358/182/1 359/180/1 360/179/1
f 361/183/1 362/184/1 363/182/1 364/181/1
f 365/185/1 366/186/1 367/184/1 368/183/1
f 369/187/1 370/188/1 371/186/1 372/185/1
f 373/189/1 374/190/1 375/188/1 376/187/1
f 377/191/1 378/192/1 379/190/1 380/189/1
f 381/193/1 382/194/1 383/192/1 384/191/1
f 385/195/1 386/196/1 387/194/1 388/193/1
f 389/197/1 390/198/1 391/196/1 392/195/1
f 393/199/1 394/200/1 395/198/1 396/197/1
f 397/201/1 398/202/1 399/200/1 400/199/1
f 401/203/1 402/204/1 403/202/1 404/201/1
f 405/205/1 406/206/1 407/204/1 408/203/1
f 409/207/1 410/208/1 411/206/1 412/205/1
f 413/209/1 414/210/1 415/208/1 416/207/1
f 417/211/1 418/212/1 419/210/1 420/209/1
f 421/213/1 422/214/1 423/212/1 424/211/1
f 425/215/1 426/216/1 427/214/1 428/213/1
f 429/217/1 430/218/1 431/216/1 432/215/1
f 433/219/1 434/220/1 435/218/1 436/217/1
f 437/221/1 438/222/1 439/220/1 440/219/1

