# Tiled2Unity generated file. Do not modify by hand.
# Wavefront file for 'Rodrik-2_mesh_0027.obj'

# Vertices (Count = 60)
v -720 -512 0
v -736 -512 0
v -736 -496 0
v -720 -496 0
v -400 -528 0
v -416 -528 0
v -416 -512 0
v -400 -512 0
v -832 -704 0
v -848 -704 0
v -848 -688 0
v -832 -688 0
v -816 -704 0
v -832 -704 0
v -832 -688 0
v -816 -688 0
v -832 -720 0
v -848 -720 0
v -848 -704 0
v -832 -704 0
v -816 -720 0
v -832 -720 0
v -832 -704 0
v -816 -704 0
v -832 -736 0
v -848 -736 0
v -848 -720 0
v -832 -720 0
v -816 -736 0
v -832 -736 0
v -832 -720 0
v -816 -720 0
v -832 -752 0
v -848 -752 0
v -848 -736 0
v -832 -736 0
v -816 -752 0
v -832 -752 0
v -832 -736 0
v -816 -736 0
v -288 -800 0
v -304 -800 0
v -304 -784 0
v -288 -784 0
v -304 -816 0
v -320 -816 0
v -320 -800 0
v -304 -800 0
v -64 -912 0
v -80 -912 0
v -80 -896 0
v -64 -896 0
v -896 -944 0
v -912 -944 0
v -912 -928 0
v -896 -928 0
v -240 -1088 0
v -256 -1088 0
v -256 -1072 0
v -240 -1072 0

# Texture cooridinates (Count = 9)
vt 0.32 0.2
vt 0.48 0.2
vt 0.48 0.36
vt 0.32 0.36
vt 0.64 0.36
vt 0.64 0.52
vt 0.48 0.52
vt 0.32 0.52
vt 0.64 0.2

# Normal
vn 0 0 -1

# Mesh description
g Rodrik-2_mesh_0027

# Faces
f 1/1/1 2/2/1 3/3/1 4/4/1
f 5/1/1 6/2/1 7/3/1 8/4/1
f 9/3/1 10/5/1 11/6/1 12/7/1
f 13/4/1 14/3/1 15/7/1 16/8/1
f 17/2/1 18/9/1 19/5/1 20/3/1
f 21/1/1 22/2/1 23/3/1 24/4/1
f 25/3/1 26/5/1 27/6/1 28/7/1
f 29/4/1 30/3/1 31/7/1 32/8/1
f 33/2/1 34/9/1 35/5/1 36/3/1
f 37/1/1 38/2/1 39/3/1 40/4/1
f 41/1/1 42/2/1 43/3/1 44/4/1
f 45/1/1 46/2/1 47/3/1 48/4/1
f 49/1/1 50/2/1 51/3/1 52/4/1
f 53/1/1 54/2/1 55/3/1 56/4/1
f 57/1/1 58/2/1 59/3/1 60/4/1

