# Tiled2Unity generated file. Do not modify by hand.
# Wavefront file for 'Rodrik-2_mesh_0021.obj'

# Vertices (Count = 560)
v -304 -384 0
v -320 -384 0
v -320 -368 0
v -304 -368 0
v -288 -384 0
v -304 -384 0
v -304 -368 0
v -288 -368 0
v -272 -384 0
v -288 -384 0
v -288 -368 0
v -272 -368 0
v -256 -384 0
v -272 -384 0
v -272 -368 0
v -256 -368 0
v -240 -384 0
v -256 -384 0
v -256 -368 0
v -240 -368 0
v -224 -384 0
v -240 -384 0
v -240 -368 0
v -224 -368 0
v -208 -384 0
v -224 -384 0
v -224 -368 0
v -208 -368 0
v -160 -384 0
v -176 -384 0
v -176 -368 0
v -160 -368 0
v -144 -384 0
v -160 -384 0
v -160 -368 0
v -144 -368 0
v -128 -384 0
v -144 -384 0
v -144 -368 0
v -128 -368 0
v -112 -384 0
v -128 -384 0
v -128 -368 0
v -112 -368 0
v -96 -384 0
v -112 -384 0
v -112 -368 0
v -96 -368 0
v -80 -384 0
v -96 -384 0
v -96 -368 0
v -80 -368 0
v -64 -384 0
v -80 -384 0
v -80 -368 0
v -64 -368 0
v -304 -400 0
v -320 -400 0
v -320 -384 0
v -304 -384 0
v -288 -400 0
v -304 -400 0
v -304 -384 0
v -288 -384 0
v -272 -400 0
v -288 -400 0
v -288 -384 0
v -272 -384 0
v -256 -400 0
v -272 -400 0
v -272 -384 0
v -256 -384 0
v -240 -400 0
v -256 -400 0
v -256 -384 0
v -240 -384 0
v -224 -400 0
v -240 -400 0
v -240 -384 0
v -224 -384 0
v -208 -400 0
v -224 -400 0
v -224 -384 0
v -208 -384 0
v -160 -400 0
v -176 -400 0
v -176 -384 0
v -160 -384 0
v -144 -400 0
v -160 -400 0
v -160 -384 0
v -144 -384 0
v -128 -400 0
v -144 -400 0
v -144 -384 0
v -128 -384 0
v -112 -400 0
v -128 -400 0
v -128 -384 0
v -112 -384 0
v -96 -400 0
v -112 -400 0
v -112 -384 0
v -96 -384 0
v -80 -400 0
v -96 -400 0
v -96 -384 0
v -80 -384 0
v -64 -400 0
v -80 -400 0
v -80 -384 0
v -64 -384 0
v -304 -416 0
v -320 -416 0
v -320 -400 0
v -304 -400 0
v -288 -416 0
v -304 -416 0
v -304 -400 0
v -288 -400 0
v -272 -416 0
v -288 -416 0
v -288 -400 0
v -272 -400 0
v -256 -416 0
v -272 -416 0
v -272 -400 0
v -256 -400 0
v -240 -416 0
v -256 -416 0
v -256 -400 0
v -240 -400 0
v -224 -416 0
v -240 -416 0
v -240 -400 0
v -224 -400 0
v -208 -416 0
v -224 -416 0
v -224 -400 0
v -208 -400 0
v -160 -416 0
v -176 -416 0
v -176 -400 0
v -160 -400 0
v -144 -416 0
v -160 -416 0
v -160 -400 0
v -144 -400 0
v -128 -416 0
v -144 -416 0
v -144 -400 0
v -128 -400 0
v -112 -416 0
v -128 -416 0
v -128 -400 0
v -112 -400 0
v -96 -416 0
v -112 -416 0
v -112 -400 0
v -96 -400 0
v -80 -416 0
v -96 -416 0
v -96 -400 0
v -80 -400 0
v -64 -416 0
v -80 -416 0
v -80 -400 0
v -64 -400 0
v -304 -432 0
v -320 -432 0
v -320 -416 0
v -304 -416 0
v -288 -432 0
v -304 -432 0
v -304 -416 0
v -288 -416 0
v -272 -432 0
v -288 -432 0
v -288 -416 0
v -272 -416 0
v -256 -432 0
v -272 -432 0
v -272 -416 0
v -256 -416 0
v -240 -432 0
v -256 -432 0
v -256 -416 0
v -240 -416 0
v -224 -432 0
v -240 -432 0
v -240 -416 0
v -224 -416 0
v -208 -432 0
v -224 -432 0
v -224 -416 0
v -208 -416 0
v -160 -432 0
v -176 -432 0
v -176 -416 0
v -160 -416 0
v -144 -432 0
v -160 -432 0
v -160 -416 0
v -144 -416 0
v -128 -432 0
v -144 -432 0
v -144 -416 0
v -128 -416 0
v -112 -432 0
v -128 -432 0
v -128 -416 0
v -112 -416 0
v -96 -432 0
v -112 -432 0
v -112 -416 0
v -96 -416 0
v -80 -432 0
v -96 -432 0
v -96 -416 0
v -80 -416 0
v -64 -432 0
v -80 -432 0
v -80 -416 0
v -64 -416 0
v -304 -448 0
v -320 -448 0
v -320 -432 0
v -304 -432 0
v -288 -448 0
v -304 -448 0
v -304 -432 0
v -288 -432 0
v -272 -448 0
v -288 -448 0
v -288 -432 0
v -272 -432 0
v -256 -448 0
v -272 -448 0
v -272 -432 0
v -256 -432 0
v -240 -448 0
v -256 -448 0
v -256 -432 0
v -240 -432 0
v -224 -448 0
v -240 -448 0
v -240 -432 0
v -224 -432 0
v -208 -448 0
v -224 -448 0
v -224 -432 0
v -208 -432 0
v -160 -448 0
v -176 -448 0
v -176 -432 0
v -160 -432 0
v -144 -448 0
v -160 -448 0
v -160 -432 0
v -144 -432 0
v -128 -448 0
v -144 -448 0
v -144 -432 0
v -128 -432 0
v -112 -448 0
v -128 -448 0
v -128 -432 0
v -112 -432 0
v -96 -448 0
v -112 -448 0
v -112 -432 0
v -96 -432 0
v -80 -448 0
v -96 -448 0
v -96 -432 0
v -80 -432 0
v -64 -448 0
v -80 -448 0
v -80 -432 0
v -64 -432 0
v -192 -784 0
v -208 -784 0
v -208 -768 0
v -192 -768 0
v -176 -784 0
v -192 -784 0
v -192 -768 0
v -176 -768 0
v -160 -784 0
v -176 -784 0
v -176 -768 0
v -160 -768 0
v -144 -784 0
v -160 -784 0
v -160 -768 0
v -144 -768 0
v -128 -784 0
v -144 -784 0
v -144 -768 0
v -128 -768 0
v -112 -784 0
v -128 -784 0
v -128 -768 0
v -112 -768 0
v -96 -784 0
v -112 -784 0
v -112 -768 0
v -96 -768 0
v -192 -800 0
v -208 -800 0
v -208 -784 0
v -192 -784 0
v -176 -800 0
v -192 -800 0
v -192 -784 0
v -176 -784 0
v -160 -800 0
v -176 -800 0
v -176 -784 0
v -160 -784 0
v -144 -800 0
v -160 -800 0
v -160 -784 0
v -144 -784 0
v -128 -800 0
v -144 -800 0
v -144 -784 0
v -128 -784 0
v -112 -800 0
v -128 -800 0
v -128 -784 0
v -112 -784 0
v -96 -800 0
v -112 -800 0
v -112 -784 0
v -96 -784 0
v -832 -816 0
v -848 -816 0
v -848 -800 0
v -832 -800 0
v -816 -816 0
v -832 -816 0
v -832 -800 0
v -816 -800 0
v -800 -816 0
v -816 -816 0
v -816 -800 0
v -800 -800 0
v -784 -816 0
v -800 -816 0
v -800 -800 0
v -784 -800 0
v -768 -816 0
v -784 -816 0
v -784 -800 0
v -768 -800 0
v -752 -816 0
v -768 -816 0
v -768 -800 0
v -752 -800 0
v -736 -816 0
v -752 -816 0
v -752 -800 0
v -736 -800 0
v -192 -816 0
v -208 -816 0
v -208 -800 0
v -192 -800 0
v -176 -816 0
v -192 -816 0
v -192 -800 0
v -176 -800 0
v -160 -816 0
v -176 -816 0
v -176 -800 0
v -160 -800 0
v -144 -816 0
v -160 -816 0
v -160 -800 0
v -144 -800 0
v -128 -816 0
v -144 -816 0
v -144 -800 0
v -128 -800 0
v -112 -816 0
v -128 -816 0
v -128 -800 0
v -112 -800 0
v -96 -816 0
v -112 -816 0
v -112 -800 0
v -96 -800 0
v -832 -832 0
v -848 -832 0
v -848 -816 0
v -832 -816 0
v -816 -832 0
v -832 -832 0
v -832 -816 0
v -816 -816 0
v -800 -832 0
v -816 -832 0
v -816 -816 0
v -800 -816 0
v -784 -832 0
v -800 -832 0
v -800 -816 0
v -784 -816 0
v -768 -832 0
v -784 -832 0
v -784 -816 0
v -768 -816 0
v -752 -832 0
v -768 -832 0
v -768 -816 0
v -752 -816 0
v -736 -832 0
v -752 -832 0
v -752 -816 0
v -736 -816 0
v -192 -832 0
v -208 -832 0
v -208 -816 0
v -192 -816 0
v -176 -832 0
v -192 -832 0
v -192 -816 0
v -176 -816 0
v -160 -832 0
v -176 -832 0
v -176 -816 0
v -160 -816 0
v -144 -832 0
v -160 -832 0
v -160 -816 0
v -144 -816 0
v -128 -832 0
v -144 -832 0
v -144 -816 0
v -128 -816 0
v -112 -832 0
v -128 -832 0
v -128 -816 0
v -112 -816 0
v -96 -832 0
v -112 -832 0
v -112 -816 0
v -96 -816 0
v -832 -848 0
v -848 -848 0
v -848 -832 0
v -832 -832 0
v -816 -848 0
v -832 -848 0
v -832 -832 0
v -816 -832 0
v -800 -848 0
v -816 -848 0
v -816 -832 0
v -800 -832 0
v -784 -848 0
v -800 -848 0
v -800 -832 0
v -784 -832 0
v -768 -848 0
v -784 -848 0
v -784 -832 0
v -768 -832 0
v -752 -848 0
v -768 -848 0
v -768 -832 0
v -752 -832 0
v -736 -848 0
v -752 -848 0
v -752 -832 0
v -736 -832 0
v -192 -848 0
v -208 -848 0
v -208 -832 0
v -192 -832 0
v -176 -848 0
v -192 -848 0
v -192 -832 0
v -176 -832 0
v -160 -848 0
v -176 -848 0
v -176 -832 0
v -160 -832 0
v -144 -848 0
v -160 -848 0
v -160 -832 0
v -144 -832 0
v -128 -848 0
v -144 -848 0
v -144 -832 0
v -128 -832 0
v -112 -848 0
v -128 -848 0
v -128 -832 0
v -112 -832 0
v -96 -848 0
v -112 -848 0
v -112 -832 0
v -96 -832 0
v -832 -864 0
v -848 -864 0
v -848 -848 0
v -832 -848 0
v -816 -864 0
v -832 -864 0
v -832 -848 0
v -816 -848 0
v -800 -864 0
v -816 -864 0
v -816 -848 0
v -800 -848 0
v -784 -864 0
v -800 -864 0
v -800 -848 0
v -784 -848 0
v -768 -864 0
v -784 -864 0
v -784 -848 0
v -768 -848 0
v -752 -864 0
v -768 -864 0
v -768 -848 0
v -752 -848 0
v -736 -864 0
v -752 -864 0
v -752 -848 0
v -736 -848 0
v -832 -880 0
v -848 -880 0
v -848 -864 0
v -832 -864 0
v -816 -880 0
v -832 -880 0
v -832 -864 0
v -816 -864 0
v -800 -880 0
v -816 -880 0
v -816 -864 0
v -800 -864 0
v -784 -880 0
v -800 -880 0
v -800 -864 0
v -784 -864 0
v -768 -880 0
v -784 -880 0
v -784 -864 0
v -768 -864 0
v -752 -880 0
v -768 -880 0
v -768 -864 0
v -752 -864 0
v -736 -880 0
v -752 -880 0
v -752 -864 0
v -736 -864 0

# Texture cooridinates (Count = 48)
vt 0.8 0.7866666
vt 0.9333333 0.7866666
vt 0.9333333 0.8933333
vt 0.8 0.8933333
vt 0.6666667 0.7866666
vt 0.6666667 0.8933333
vt 0.5333334 0.7866666
vt 0.5333334 0.8933333
vt 0.4 0.7866666
vt 0.4 0.8933333
vt 0.2666667 0.7866666
vt 0.2666667 0.8933333
vt 0.1333333 0.7866666
vt 0.1333333 0.8933333
vt 0 0.7866666
vt 0 0.8933333
vt 0.8 0.68
vt 0.9333333 0.68
vt 0.6666667 0.68
vt 0.5333334 0.68
vt 0.4 0.68
vt 0.2666667 0.68
vt 0.1333333 0.68
vt 0 0.68
vt 0.8 0.5733333
vt 0.9333333 0.5733333
vt 0.6666667 0.5733333
vt 0.5333334 0.5733333
vt 0.4 0.5733333
vt 0.2666667 0.5733333
vt 0.1333333 0.5733333
vt 0 0.5733333
vt 0.8 0.4666666
vt 0.9333333 0.4666666
vt 0.6666667 0.4666666
vt 0.5333334 0.4666666
vt 0.4 0.4666666
vt 0.2666667 0.4666666
vt 0.1333333 0.4666666
vt 0 0.4666666
vt 0.8 0.36
vt 0.9333333 0.36
vt 0.6666667 0.36
vt 0.5333334 0.36
vt 0.4 0.36
vt 0.2666667 0.36
vt 0.1333333 0.36
vt 0 0.36

# Normal
vn 0 0 -1

# Mesh description
g Rodrik-2_mesh_0021

# Faces
f 1/1/1 2/2/1 3/3/1 4/4/1
f 5/5/1 6/1/1 7/4/1 8/6/1
f 9/7/1 10/5/1 11/6/1 12/8/1
f 13/9/1 14/7/1 15/8/1 16/10/1
f 17/11/1 18/9/1 19/10/1 20/12/1
f 21/13/1 22/11/1 23/12/1 24/14/1
f 25/15/1 26/13/1 27/14/1 28/16/1
f 29/1/1 30/2/1 31/3/1 32/4/1
f 33/5/1 34/1/1 35/4/1 36/6/1
f 37/7/1 38/5/1 39/6/1 40/8/1
f 41/9/1 42/7/1 43/8/1 44/10/1
f 45/11/1 46/9/1 47/10/1 48/12/1
f 49/13/1 50/11/1 51/12/1 52/14/1
f 53/15/1 54/13/1 55/14/1 56/16/1
f 57/17/1 58/18/1 59/2/1 60/1/1
f 61/19/1 62/17/1 63/1/1 64/5/1
f 65/20/1 66/19/1 67/5/1 68/7/1
f 69/21/1 70/20/1 71/7/1 72/9/1
f 73/22/1 74/21/1 75/9/1 76/11/1
f 77/23/1 78/22/1 79/11/1 80/13/1
f 81/24/1 82/23/1 83/13/1 84/15/1
f 85/17/1 86/18/1 87/2/1 88/1/1
f 89/19/1 90/17/1 91/1/1 92/5/1
f 93/20/1 94/19/1 95/5/1 96/7/1
f 97/21/1 98/20/1 99/7/1 100/9/1
f 101/22/1 102/21/1 103/9/1 104/11/1
f 105/23/1 106/22/1 107/11/1 108/13/1
f 109/24/1 110/23/1 111/13/1 112/15/1
f 113/25/1 114/26/1 115/18/1 116/17/1
f 117/27/1 118/25/1 119/17/1 120/19/1
f 121/28/1 122/27/1 123/19/1 124/20/1
f 125/29/1 126/28/1 127/20/1 128/21/1
f 129/30/1 130/29/1 131/21/1 132/22/1
f 133/31/1 134/30/1 135/22/1 136/23/1
f 137/32/1 138/31/1 139/23/1 140/24/1
f 141/25/1 142/26/1 143/18/1 144/17/1
f 145/27/1 146/25/1 147/17/1 148/19/1
f 149/28/1 150/27/1 151/19/1 152/20/1
f 153/29/1 154/28/1 155/20/1 156/21/1
f 157/30/1 158/29/1 159/21/1 160/22/1
f 161/31/1 162/30/1 163/22/1 164/23/1
f 165/32/1 166/31/1 167/23/1 168/24/1
f 169/33/1 170/34/1 171/26/1 172/25/1
f 173/35/1 174/33/1 175/25/1 176/27/1
f 177/36/1 178/35/1 179/27/1 180/28/1
f 181/37/1 182/36/1 183/28/1 184/29/1
f 185/38/1 186/37/1 187/29/1 188/30/1
f 189/39/1 190/38/1 191/30/1 192/31/1
f 193/40/1 194/39/1 195/31/1 196/32/1
f 197/33/1 198/34/1 199/26/1 200/25/1
f 201/35/1 202/33/1 203/25/1 204/27/1
f 205/36/1 206/35/1 207/27/1 208/28/1
f 209/37/1 210/36/1 211/28/1 212/29/1
f 213/38/1 214/37/1 215/29/1 216/30/1
f 217/39/1 218/38/1 219/30/1 220/31/1
f 221/40/1 222/39/1 223/31/1 224/32/1
f 225/41/1 226/42/1 227/34/1 228/33/1
f 229/43/1 230/41/1 231/33/1 232/35/1
f 233/44/1 234/43/1 235/35/1 236/36/1
f 237/45/1 238/44/1 239/36/1 240/37/1
f 241/46/1 242/45/1 243/37/1 244/38/1
f 245/47/1 246/46/1 247/38/1 248/39/1
f 249/48/1 250/47/1 251/39/1 252/40/1
f 253/41/1 254/42/1 255/34/1 256/33/1
f 257/43/1 258/41/1 259/33/1 260/35/1
f 261/44/1 262/43/1 263/35/1 264/36/1
f 265/45/1 266/44/1 267/36/1 268/37/1
f 269/46/1 270/45/1 271/37/1 272/38/1
f 273/47/1 274/46/1 275/38/1 276/39/1
f 277/48/1 278/47/1 279/39/1 280/40/1
f 281/1/1 282/2/1 283/3/1 284/4/1
f 285/5/1 286/1/1 287/4/1 288/6/1
f 289/7/1 290/5/1 291/6/1 292/8/1
f 293/9/1 294/7/1 295/8/1 296/10/1
f 297/11/1 298/9/1 299/10/1 300/12/1
f 301/13/1 302/11/1 303/12/1 304/14/1
f 305/15/1 306/13/1 307/14/1 308/16/1
f 309/17/1 310/18/1 311/2/1 312/1/1
f 313/19/1 314/17/1 315/1/1 316/5/1
f 317/20/1 318/19/1 319/5/1 320/7/1
f 321/21/1 322/20/1 323/7/1 324/9/1
f 325/22/1 326/21/1 327/9/1 328/11/1
f 329/23/1 330/22/1 331/11/1 332/13/1
f 333/24/1 334/23/1 335/13/1 336/15/1
f 337/1/1 338/2/1 339/3/1 340/4/1
f 341/5/1 342/1/1 343/4/1 344/6/1
f 345/7/1 346/5/1 347/6/1 348/8/1
f 349/9/1 350/7/1 351/8/1 352/10/1
f 353/11/1 354/9/1 355/10/1 356/12/1
f 357/13/1 358/11/1 359/12/1 360/14/1
f 361/15/1 362/13/1 363/14/1 364/16/1
f 365/25/1 366/26/1 367/18/1 368/17/1
f 369/27/1 370/25/1 371/17/1 372/19/1
f 373/28/1 374/27/1 375/19/1 376/20/1
f 377/29/1 378/28/1 379/20/1 380/21/1
f 381/30/1 382/29/1 383/21/1 384/22/1
f 385/31/1 386/30/1 387/22/1 388/23/1
f 389/32/1 390/31/1 391/23/1 392/24/1
f 393/17/1 394/18/1 395/2/1 396/1/1
f 397/19/1 398/17/1 399/1/1 400/5/1
f 401/20/1 402/19/1 403/5/1 404/7/1
f 405/21/1 406/20/1 407/7/1 408/9/1
f 409/22/1 410/21/1 411/9/1 412/11/1
f 413/23/1 414/22/1 415/11/1 416/13/1
f 417/24/1 418/23/1 419/13/1 420/15/1
f 421/33/1 422/34/1 423/26/1 424/25/1
f 425/35/1 426/33/1 427/25/1 428/27/1
f 429/36/1 430/35/1 431/27/1 432/28/1
f 433/37/1 434/36/1 435/28/1 436/29/1
f 437/38/1 438/37/1 439/29/1 440/30/1
f 441/39/1 442/38/1 443/30/1 444/31/1
f 445/40/1 446/39/1 447/31/1 448/32/1
f 449/25/1 450/26/1 451/18/1 452/17/1
f 453/27/1 454/25/1 455/17/1 456/19/1
f 457/28/1 458/27/1 459/19/1 460/20/1
f 461/29/1 462/28/1 463/20/1 464/21/1
f 465/30/1 466/29/1 467/21/1 468/22/1
f 469/31/1 470/30/1 471/22/1 472/23/1
f 473/32/1 474/31/1 475/23/1 476/24/1
f 477/41/1 478/42/1 479/34/1 480/33/1
f 481/43/1 482/41/1 483/33/1 484/35/1
f 485/44/1 486/43/1 487/35/1 488/36/1
f 489/45/1 490/44/1 491/36/1 492/37/1
f 493/46/1 494/45/1 495/37/1 496/38/1
f 497/47/1 498/46/1 499/38/1 500/39/1
f 501/48/1 502/47/1 503/39/1 504/40/1
f 505/33/1 506/34/1 507/26/1 508/25/1
f 509/35/1 510/33/1 511/25/1 512/27/1
f 513/36/1 514/35/1 515/27/1 516/28/1
f 517/37/1 518/36/1 519/28/1 520/29/1
f 521/38/1 522/37/1 523/29/1 524/30/1
f 525/39/1 526/38/1 527/30/1 528/31/1
f 529/40/1 530/39/1 531/31/1 532/32/1
f 533/41/1 534/42/1 535/34/1 536/33/1
f 537/43/1 538/41/1 539/33/1 540/35/1
f 541/44/1 542/43/1 543/35/1 544/36/1
f 545/45/1 546/44/1 547/36/1 548/37/1
f 549/46/1 550/45/1 551/37/1 552/38/1
f 553/47/1 554/46/1 555/38/1 556/39/1
f 557/48/1 558/47/1 559/39/1 560/40/1

