# Tiled2Unity generated file. Do not modify by hand.
# Wavefront file for 'Rodrik-2_mesh_0017.obj'

# Vertices (Count = 552)
v -1056 -752 0
v -1072 -752 0
v -1072 -736 0
v -1056 -736 0
v -1040 -752 0
v -1056 -752 0
v -1056 -736 0
v -1040 -736 0
v -1024 -752 0
v -1040 -752 0
v -1040 -736 0
v -1024 -736 0
v -1008 -752 0
v -1024 -752 0
v -1024 -736 0
v -1008 -736 0
v -992 -752 0
v -1008 -752 0
v -1008 -736 0
v -992 -736 0
v -976 -752 0
v -992 -752 0
v -992 -736 0
v -976 -736 0
v -960 -752 0
v -976 -752 0
v -976 -736 0
v -960 -736 0
v -944 -752 0
v -960 -752 0
v -960 -736 0
v -944 -736 0
v -928 -752 0
v -944 -752 0
v -944 -736 0
v -928 -736 0
v -144 -752 0
v -160 -752 0
v -160 -736 0
v -144 -736 0
v -128 -752 0
v -144 -752 0
v -144 -736 0
v -128 -736 0
v -112 -752 0
v -128 -752 0
v -128 -736 0
v -112 -736 0
v -96 -752 0
v -112 -752 0
v -112 -736 0
v -96 -736 0
v -80 -752 0
v -96 -752 0
v -96 -736 0
v -80 -736 0
v -64 -752 0
v -80 -752 0
v -80 -736 0
v -64 -736 0
v -48 -752 0
v -64 -752 0
v -64 -736 0
v -48 -736 0
v -32 -752 0
v -48 -752 0
v -48 -736 0
v -32 -736 0
v -16 -752 0
v -32 -752 0
v -32 -736 0
v -16 -736 0
v -1056 -768 0
v -1072 -768 0
v -1072 -752 0
v -1056 -752 0
v -1040 -768 0
v -1056 -768 0
v -1056 -752 0
v -1040 -752 0
v -1024 -768 0
v -1040 -768 0
v -1040 -752 0
v -1024 -752 0
v -1008 -768 0
v -1024 -768 0
v -1024 -752 0
v -1008 -752 0
v -992 -768 0
v -1008 -768 0
v -1008 -752 0
v -992 -752 0
v -976 -768 0
v -992 -768 0
v -992 -752 0
v -976 -752 0
v -960 -768 0
v -976 -768 0
v -976 -752 0
v -960 -752 0
v -944 -768 0
v -960 -768 0
v -960 -752 0
v -944 -752 0
v -928 -768 0
v -944 -768 0
v -944 -752 0
v -928 -752 0
v -144 -768 0
v -160 -768 0
v -160 -752 0
v -144 -752 0
v -128 -768 0
v -144 -768 0
v -144 -752 0
v -128 -752 0
v -112 -768 0
v -128 -768 0
v -128 -752 0
v -112 -752 0
v -96 -768 0
v -112 -768 0
v -112 -752 0
v -96 -752 0
v -80 -768 0
v -96 -768 0
v -96 -752 0
v -80 -752 0
v -64 -768 0
v -80 -768 0
v -80 -752 0
v -64 -752 0
v -48 -768 0
v -64 -768 0
v -64 -752 0
v -48 -752 0
v -32 -768 0
v -48 -768 0
v -48 -752 0
v -32 -752 0
v -16 -768 0
v -32 -768 0
v -32 -752 0
v -16 -752 0
v -400 -976 0
v -416 -976 0
v -416 -960 0
v -400 -960 0
v -384 -976 0
v -400 -976 0
v -400 -960 0
v -384 -960 0
v -368 -976 0
v -384 -976 0
v -384 -960 0
v -368 -960 0
v -352 -976 0
v -368 -976 0
v -368 -960 0
v -352 -960 0
v -336 -976 0
v -352 -976 0
v -352 -960 0
v -336 -960 0
v -320 -976 0
v -336 -976 0
v -336 -960 0
v -320 -960 0
v -304 -976 0
v -320 -976 0
v -320 -960 0
v -304 -960 0
v -288 -976 0
v -304 -976 0
v -304 -960 0
v -288 -960 0
v -272 -976 0
v -288 -976 0
v -288 -960 0
v -272 -960 0
v -1120 -992 0
v -1136 -992 0
v -1136 -976 0
v -1120 -976 0
v -1104 -992 0
v -1120 -992 0
v -1120 -976 0
v -1104 -976 0
v -1088 -992 0
v -1104 -992 0
v -1104 -976 0
v -1088 -976 0
v -1072 -992 0
v -1088 -992 0
v -1088 -976 0
v -1072 -976 0
v -1056 -992 0
v -1072 -992 0
v -1072 -976 0
v -1056 -976 0
v -1040 -992 0
v -1056 -992 0
v -1056 -976 0
v -1040 -976 0
v -400 -992 0
v -416 -992 0
v -416 -976 0
v -400 -976 0
v -384 -992 0
v -400 -992 0
v -400 -976 0
v -384 -976 0
v -368 -992 0
v -384 -992 0
v -384 -976 0
v -368 -976 0
v -352 -992 0
v -368 -992 0
v -368 -976 0
v -352 -976 0
v -336 -992 0
v -352 -992 0
v -352 -976 0
v -336 -976 0
v -320 -992 0
v -336 -992 0
v -336 -976 0
v -320 -976 0
v -304 -992 0
v -320 -992 0
v -320 -976 0
v -304 -976 0
v -288 -992 0
v -304 -992 0
v -304 -976 0
v -288 -976 0
v -272 -992 0
v -288 -992 0
v -288 -976 0
v -272 -976 0
v -144 -992 0
v -160 -992 0
v -160 -976 0
v -144 -976 0
v -128 -992 0
v -144 -992 0
v -144 -976 0
v -128 -976 0
v -112 -992 0
v -128 -992 0
v -128 -976 0
v -112 -976 0
v -96 -992 0
v -112 -992 0
v -112 -976 0
v -96 -976 0
v -80 -992 0
v -96 -992 0
v -96 -976 0
v -80 -976 0
v -64 -992 0
v -80 -992 0
v -80 -976 0
v -64 -976 0
v -48 -992 0
v -64 -992 0
v -64 -976 0
v -48 -976 0
v -32 -992 0
v -48 -992 0
v -48 -976 0
v -32 -976 0
v -16 -992 0
v -32 -992 0
v -32 -976 0
v -16 -976 0
v -1120 -1008 0
v -1136 -1008 0
v -1136 -992 0
v -1120 -992 0
v -1104 -1008 0
v -1120 -1008 0
v -1120 -992 0
v -1104 -992 0
v -1088 -1008 0
v -1104 -1008 0
v -1104 -992 0
v -1088 -992 0
v -1072 -1008 0
v -1088 -1008 0
v -1088 -992 0
v -1072 -992 0
v -1056 -1008 0
v -1072 -1008 0
v -1072 -992 0
v -1056 -992 0
v -1040 -1008 0
v -1056 -1008 0
v -1056 -992 0
v -1040 -992 0
v -144 -1008 0
v -160 -1008 0
v -160 -992 0
v -144 -992 0
v -128 -1008 0
v -144 -1008 0
v -144 -992 0
v -128 -992 0
v -112 -1008 0
v -128 -1008 0
v -128 -992 0
v -112 -992 0
v -96 -1008 0
v -112 -1008 0
v -112 -992 0
v -96 -992 0
v -80 -1008 0
v -96 -1008 0
v -96 -992 0
v -80 -992 0
v -64 -1008 0
v -80 -1008 0
v -80 -992 0
v -64 -992 0
v -48 -1008 0
v -64 -1008 0
v -64 -992 0
v -48 -992 0
v -32 -1008 0
v -48 -1008 0
v -48 -992 0
v -32 -992 0
v -16 -1008 0
v -32 -1008 0
v -32 -992 0
v -16 -992 0
v -864 -1040 0
v -880 -1040 0
v -880 -1024 0
v -864 -1024 0
v -848 -1040 0
v -864 -1040 0
v -864 -1024 0
v -848 -1024 0
v -832 -1040 0
v -848 -1040 0
v -848 -1024 0
v -832 -1024 0
v -816 -1040 0
v -832 -1040 0
v -832 -1024 0
v -816 -1024 0
v -800 -1040 0
v -816 -1040 0
v -816 -1024 0
v -800 -1024 0
v -784 -1040 0
v -800 -1040 0
v -800 -1024 0
v -784 -1024 0
v -768 -1040 0
v -784 -1040 0
v -784 -1024 0
v -768 -1024 0
v -752 -1040 0
v -768 -1040 0
v -768 -1024 0
v -752 -1024 0
v -736 -1040 0
v -752 -1040 0
v -752 -1024 0
v -736 -1024 0
v -864 -1056 0
v -880 -1056 0
v -880 -1040 0
v -864 -1040 0
v -848 -1056 0
v -864 -1056 0
v -864 -1040 0
v -848 -1040 0
v -832 -1056 0
v -848 -1056 0
v -848 -1040 0
v -832 -1040 0
v -816 -1056 0
v -832 -1056 0
v -832 -1040 0
v -816 -1040 0
v -800 -1056 0
v -816 -1056 0
v -816 -1040 0
v -800 -1040 0
v -784 -1056 0
v -800 -1056 0
v -800 -1040 0
v -784 -1040 0
v -768 -1056 0
v -784 -1056 0
v -784 -1040 0
v -768 -1040 0
v -752 -1056 0
v -768 -1056 0
v -768 -1040 0
v -752 -1040 0
v -736 -1056 0
v -752 -1056 0
v -752 -1040 0
v -736 -1040 0
v -400 -1088 0
v -416 -1088 0
v -416 -1072 0
v -400 -1072 0
v -384 -1088 0
v -400 -1088 0
v -400 -1072 0
v -384 -1072 0
v -368 -1088 0
v -384 -1088 0
v -384 -1072 0
v -368 -1072 0
v -352 -1088 0
v -368 -1088 0
v -368 -1072 0
v -352 -1072 0
v -336 -1088 0
v -352 -1088 0
v -352 -1072 0
v -336 -1072 0
v -320 -1088 0
v -336 -1088 0
v -336 -1072 0
v -320 -1072 0
v -304 -1088 0
v -320 -1088 0
v -320 -1072 0
v -304 -1072 0
v -288 -1088 0
v -304 -1088 0
v -304 -1072 0
v -288 -1072 0
v -272 -1088 0
v -288 -1088 0
v -288 -1072 0
v -272 -1072 0
v -400 -1104 0
v -416 -1104 0
v -416 -1088 0
v -400 -1088 0
v -384 -1104 0
v -400 -1104 0
v -400 -1088 0
v -384 -1088 0
v -368 -1104 0
v -384 -1104 0
v -384 -1088 0
v -368 -1088 0
v -352 -1104 0
v -368 -1104 0
v -368 -1088 0
v -352 -1088 0
v -336 -1104 0
v -352 -1104 0
v -352 -1088 0
v -336 -1088 0
v -320 -1104 0
v -336 -1104 0
v -336 -1088 0
v -320 -1088 0
v -304 -1104 0
v -320 -1104 0
v -320 -1088 0
v -304 -1088 0
v -288 -1104 0
v -304 -1104 0
v -304 -1088 0
v -288 -1088 0
v -272 -1104 0
v -288 -1104 0
v -288 -1088 0
v -272 -1088 0
v -864 -1152 0
v -880 -1152 0
v -880 -1136 0
v -864 -1136 0
v -848 -1152 0
v -864 -1152 0
v -864 -1136 0
v -848 -1136 0
v -832 -1152 0
v -848 -1152 0
v -848 -1136 0
v -832 -1136 0
v -816 -1152 0
v -832 -1152 0
v -832 -1136 0
v -816 -1136 0
v -800 -1152 0
v -816 -1152 0
v -816 -1136 0
v -800 -1136 0
v -784 -1152 0
v -800 -1152 0
v -800 -1136 0
v -784 -1136 0
v -768 -1152 0
v -784 -1152 0
v -784 -1136 0
v -768 -1136 0
v -752 -1152 0
v -768 -1152 0
v -768 -1136 0
v -752 -1136 0
v -736 -1152 0
v -752 -1152 0
v -752 -1136 0
v -736 -1136 0
v -864 -1168 0
v -880 -1168 0
v -880 -1152 0
v -864 -1152 0
v -848 -1168 0
v -864 -1168 0
v -864 -1152 0
v -848 -1152 0
v -832 -1168 0
v -848 -1168 0
v -848 -1152 0
v -832 -1152 0
v -816 -1168 0
v -832 -1168 0
v -832 -1152 0
v -816 -1152 0
v -800 -1168 0
v -816 -1168 0
v -816 -1152 0
v -800 -1152 0
v -784 -1168 0
v -800 -1168 0
v -800 -1152 0
v -784 -1152 0
v -768 -1168 0
v -784 -1168 0
v -784 -1152 0
v -768 -1152 0
v -752 -1168 0
v -768 -1168 0
v -768 -1152 0
v -752 -1152 0
v -736 -1168 0
v -752 -1168 0
v -752 -1152 0
v -736 -1152 0

# Texture cooridinates (Count = 30)
vt 0.7901235 0.2888889
vt 0.8888889 0.2888889
vt 0.8888889 0.4666666
vt 0.7901235 0.4666666
vt 0.691358 0.2888889
vt 0.691358 0.4666666
vt 0.5925926 0.2888889
vt 0.5925926 0.4666666
vt 0.4938272 0.2888889
vt 0.4938272 0.4666666
vt 0.3950617 0.2888889
vt 0.3950617 0.4666666
vt 0.2962963 0.2888889
vt 0.2962963 0.4666666
vt 0.1975309 0.2888889
vt 0.1975309 0.4666666
vt 0.09876543 0.2888889
vt 0.09876543 0.4666666
vt 0 0.2888889
vt 0 0.4666666
vt 0.7901235 0.1111111
vt 0.8888889 0.1111111
vt 0.691358 0.1111111
vt 0.5925926 0.1111111
vt 0.4938272 0.1111111
vt 0.3950617 0.1111111
vt 0.2962963 0.1111111
vt 0.1975309 0.1111111
vt 0.09876543 0.1111111
vt 0 0.1111111

# Normal
vn 0 0 -1

# Mesh description
g Rodrik-2_mesh_0017

# Faces
f 1/1/1 2/2/1 3/3/1 4/4/1
f 5/5/1 6/1/1 7/4/1 8/6/1
f 9/7/1 10/5/1 11/6/1 12/8/1
f 13/9/1 14/7/1 15/8/1 16/10/1
f 17/11/1 18/9/1 19/10/1 20/12/1
f 21/13/1 22/11/1 23/12/1 24/14/1
f 25/15/1 26/13/1 27/14/1 28/16/1
f 29/17/1 30/15/1 31/16/1 32/18/1
f 33/19/1 34/17/1 35/18/1 36/20/1
f 37/1/1 38/2/1 39/3/1 40/4/1
f 41/5/1 42/1/1 43/4/1 44/6/1
f 45/7/1 46/5/1 47/6/1 48/8/1
f 49/9/1 50/7/1 51/8/1 52/10/1
f 53/11/1 54/9/1 55/10/1 56/12/1
f 57/13/1 58/11/1 59/12/1 60/14/1
f 61/15/1 62/13/1 63/14/1 64/16/1
f 65/17/1 66/15/1 67/16/1 68/18/1
f 69/19/1 70/17/1 71/18/1 72/20/1
f 73/21/1 74/22/1 75/2/1 76/1/1
f 77/23/1 78/21/1 79/1/1 80/5/1
f 81/24/1 82/23/1 83/5/1 84/7/1
f 85/25/1 86/24/1 87/7/1 88/9/1
f 89/26/1 90/25/1 91/9/1 92/11/1
f 93/27/1 94/26/1 95/11/1 96/13/1
f 97/28/1 98/27/1 99/13/1 100/15/1
f 101/29/1 102/28/1 103/15/1 104/17/1
f 105/30/1 106/29/1 107/17/1 108/19/1
f 109/21/1 110/22/1 111/2/1 112/1/1
f 113/23/1 114/21/1 115/1/1 116/5/1
f 117/24/1 118/23/1 119/5/1 120/7/1
f 121/25/1 122/24/1 123/7/1 124/9/1
f 125/26/1 126/25/1 127/9/1 128/11/1
f 129/27/1 130/26/1 131/11/1 132/13/1
f 133/28/1 134/27/1 135/13/1 136/15/1
f 137/29/1 138/28/1 139/15/1 140/17/1
f 141/30/1 142/29/1 143/17/1 144/19/1
f 145/1/1 146/2/1 147/3/1 148/4/1
f 149/5/1 150/1/1 151/4/1 152/6/1
f 153/7/1 154/5/1 155/6/1 156/8/1
f 157/9/1 158/7/1 159/8/1 160/10/1
f 161/11/1 162/9/1 163/10/1 164/12/1
f 165/13/1 166/11/1 167/12/1 168/14/1
f 169/15/1 170/13/1 171/14/1 172/16/1
f 173/17/1 174/15/1 175/16/1 176/18/1
f 177/19/1 178/17/1 179/18/1 180/20/1
f 181/9/1 182/7/1 183/8/1 184/10/1
f 185/11/1 186/9/1 187/10/1 188/12/1
f 189/13/1 190/11/1 191/12/1 192/14/1
f 193/15/1 194/13/1 195/14/1 196/16/1
f 197/17/1 198/15/1 199/16/1 200/18/1
f 201/19/1 202/17/1 203/18/1 204/20/1
f 205/21/1 206/22/1 207/2/1 208/1/1
f 209/23/1 210/21/1 211/1/1 212/5/1
f 213/24/1 214/23/1 215/5/1 216/7/1
f 217/25/1 218/24/1 219/7/1 220/9/1
f 221/26/1 222/25/1 223/9/1 224/11/1
f 225/27/1 226/26/1 227/11/1 228/13/1
f 229/28/1 230/27/1 231/13/1 232/15/1
f 233/29/1 234/28/1 235/15/1 236/17/1
f 237/30/1 238/29/1 239/17/1 240/19/1
f 241/1/1 242/2/1 243/3/1 244/4/1
f 245/5/1 246/1/1 247/4/1 248/6/1
f 249/7/1 250/5/1 251/6/1 252/8/1
f 253/9/1 254/7/1 255/8/1 256/10/1
f 257/11/1 258/9/1 259/10/1 260/12/1
f 261/13/1 262/11/1 263/12/1 264/14/1
f 265/15/1 266/13/1 267/14/1 268/16/1
f 269/17/1 270/15/1 271/16/1 272/18/1
f 273/19/1 274/17/1 275/18/1 276/20/1
f 277/25/1 278/24/1 279/7/1 280/9/1
f 281/26/1 282/25/1 283/9/1 284/11/1
f 285/27/1 286/26/1 287/11/1 288/13/1
f 289/28/1 290/27/1 291/13/1 292/15/1
f 293/29/1 294/28/1 295/15/1 296/17/1
f 297/30/1 298/29/1 299/17/1 300/19/1
f 301/21/1 302/22/1 303/2/1 304/1/1
f 305/23/1 306/21/1 307/1/1 308/5/1
f 309/24/1 310/23/1 311/5/1 312/7/1
f 313/25/1 314/24/1 315/7/1 316/9/1
f 317/26/1 318/25/1 319/9/1 320/11/1
f 321/27/1 322/26/1 323/11/1 324/13/1
f 325/28/1 326/27/1 327/13/1 328/15/1
f 329/29/1 330/28/1 331/15/1 332/17/1
f 333/30/1 334/29/1 335/17/1 336/19/1
f 337/1/1 338/2/1 339/3/1 340/4/1
f 341/5/1 342/1/1 343/4/1 344/6/1
f 345/7/1 346/5/1 347/6/1 348/8/1
f 349/9/1 350/7/1 351/8/1 352/10/1
f 353/11/1 354/9/1 355/10/1 356/12/1
f 357/13/1 358/11/1 359/12/1 360/14/1
f 361/15/1 362/13/1 363/14/1 364/16/1
f 365/17/1 366/15/1 367/16/1 368/18/1
f 369/19/1 370/17/1 371/18/1 372/20/1
f 373/21/1 374/22/1 375/2/1 376/1/1
f 377/23/1 378/21/1 379/1/1 380/5/1
f 381/24/1 382/23/1 383/5/1 384/7/1
f 385/25/1 386/24/1 387/7/1 388/9/1
f 389/26/1 390/25/1 391/9/1 392/11/1
f 393/27/1 394/26/1 395/11/1 396/13/1
f 397/28/1 398/27/1 399/13/1 400/15/1
f 401/29/1 402/28/1 403/15/1 404/17/1
f 405/30/1 406/29/1 407/17/1 408/19/1
f 409/1/1 410/2/1 411/3/1 412/4/1
f 413/5/1 414/1/1 415/4/1 416/6/1
f 417/7/1 418/5/1 419/6/1 420/8/1
f 421/9/1 422/7/1 423/8/1 424/10/1
f 425/11/1 426/9/1 427/10/1 428/12/1
f 429/13/1 430/11/1 431/12/1 432/14/1
f 433/15/1 434/13/1 435/14/1 436/16/1
f 437/17/1 438/15/1 439/16/1 440/18/1
f 441/19/1 442/17/1 443/18/1 444/20/1
f 445/21/1 446/22/1 447/2/1 448/1/1
f 449/23/1 450/21/1 451/1/1 452/5/1
f 453/24/1 454/23/1 455/5/1 456/7/1
f 457/25/1 458/24/1 459/7/1 460/9/1
f 461/26/1 462/25/1 463/9/1 464/11/1
f 465/27/1 466/26/1 467/11/1 468/13/1
f 469/28/1 470/27/1 471/13/1 472/15/1
f 473/29/1 474/28/1 475/15/1 476/17/1
f 477/30/1 478/29/1 479/17/1 480/19/1
f 481/1/1 482/2/1 483/3/1 484/4/1
f 485/5/1 486/1/1 487/4/1 488/6/1
f 489/7/1 490/5/1 491/6/1 492/8/1
f 493/9/1 494/7/1 495/8/1 496/10/1
f 497/11/1 498/9/1 499/10/1 500/12/1
f 501/13/1 502/11/1 503/12/1 504/14/1
f 505/15/1 506/13/1 507/14/1 508/16/1
f 509/17/1 510/15/1 511/16/1 512/18/1
f 513/19/1 514/17/1 515/18/1 516/20/1
f 517/21/1 518/22/1 519/2/1 520/1/1
f 521/23/1 522/21/1 523/1/1 524/5/1
f 525/24/1 526/23/1 527/5/1 528/7/1
f 529/25/1 530/24/1 531/7/1 532/9/1
f 533/26/1 534/25/1 535/9/1 536/11/1
f 537/27/1 538/26/1 539/11/1 540/13/1
f 541/28/1 542/27/1 543/13/1 544/15/1
f 545/29/1 546/28/1 547/15/1 548/17/1
f 549/30/1 550/29/1 551/17/1 552/19/1

