# Tiled2Unity generated file. Do not modify by hand.
# Wavefront file for 'Rodrik-2_mesh_0026.obj'

# Vertices (Count = 64)
v -960 -496 0
v -976 -496 0
v -976 -480 0
v -960 -480 0
v -944 -496 0
v -960 -496 0
v -960 -480 0
v -944 -480 0
v -1088 -752 0
v -1104 -752 0
v -1104 -736 0
v -1088 -736 0
v -1072 -752 0
v -1088 -752 0
v -1088 -736 0
v -1072 -736 0
v -1088 -848 0
v -1104 -848 0
v -1104 -832 0
v -1088 -832 0
v -1072 -848 0
v -1088 -848 0
v -1088 -832 0
v -1072 -832 0
v -1072 -896 0
v -1088 -896 0
v -1088 -880 0
v -1072 -880 0
v -1056 -896 0
v -1072 -896 0
v -1072 -880 0
v -1056 -880 0
v -256 -1024 0
v -272 -1024 0
v -272 -1008 0
v -256 -1008 0
v -240 -1024 0
v -256 -1024 0
v -256 -1008 0
v -240 -1008 0
v -208 -1072 0
v -224 -1072 0
v -224 -1056 0
v -208 -1056 0
v -192 -1072 0
v -208 -1072 0
v -208 -1056 0
v -192 -1056 0
v -304 -1152 0
v -320 -1152 0
v -320 -1136 0
v -304 -1136 0
v -288 -1152 0
v -304 -1152 0
v -304 -1136 0
v -288 -1136 0
v -272 -1168 0
v -288 -1168 0
v -288 -1152 0
v -272 -1152 0
v -256 -1168 0
v -272 -1168 0
v -272 -1152 0
v -256 -1152 0

# Texture cooridinates (Count = 6)
vt 0.6666667 0.7037037
vt 0.8888889 0.7037037
vt 0.8888889 1
vt 0.6666667 1
vt 0.4444444 0.7037037
vt 0.4444444 1

# Normal
vn 0 0 -1

# Mesh description
g Rodrik-2_mesh_0026

# Faces
f 1/1/1 2/2/1 3/3/1 4/4/1
f 5/5/1 6/1/1 7/4/1 8/6/1
f 9/1/1 10/2/1 11/3/1 12/4/1
f 13/5/1 14/1/1 15/4/1 16/6/1
f 17/1/1 18/2/1 19/3/1 20/4/1
f 21/5/1 22/1/1 23/4/1 24/6/1
f 25/1/1 26/2/1 27/3/1 28/4/1
f 29/5/1 30/1/1 31/4/1 32/6/1
f 33/1/1 34/2/1 35/3/1 36/4/1
f 37/5/1 38/1/1 39/4/1 40/6/1
f 41/1/1 42/2/1 43/3/1 44/4/1
f 45/5/1 46/1/1 47/4/1 48/6/1
f 49/1/1 50/2/1 51/3/1 52/4/1
f 53/5/1 54/1/1 55/4/1 56/6/1
f 57/1/1 58/2/1 59/3/1 60/4/1
f 61/5/1 62/1/1 63/4/1 64/6/1

