# Tiled2Unity generated file. Do not modify by hand.
# Wavefront file for 'Town_mesh_0009.obj'

# Vertices (Count = 80)
v -960 -384 0
v -976 -384 0
v -976 -368 0
v -960 -368 0
v -944 -384 0
v -960 -384 0
v -960 -368 0
v -944 -368 0
v -960 -416 0
v -976 -416 0
v -976 -400 0
v -960 -400 0
v -944 -416 0
v -960 -416 0
v -960 -400 0
v -944 -400 0
v -960 -432 0
v -976 -432 0
v -976 -416 0
v -960 -416 0
v -944 -432 0
v -960 -432 0
v -960 -416 0
v -944 -416 0
v -320 -432 0
v -336 -432 0
v -336 -416 0
v -320 -416 0
v -304 -432 0
v -320 -432 0
v -320 -416 0
v -304 -416 0
v -960 -448 0
v -976 -448 0
v -976 -432 0
v -960 -432 0
v -944 -448 0
v -960 -448 0
v -960 -432 0
v -944 -432 0
v -320 -448 0
v -336 -448 0
v -336 -432 0
v -320 -432 0
v -304 -448 0
v -320 -448 0
v -320 -432 0
v -304 -432 0
v -976 -464 0
v -992 -464 0
v -992 -448 0
v -976 -448 0
v -960 -464 0
v -976 -464 0
v -976 -448 0
v -960 -448 0
v -320 -464 0
v -336 -464 0
v -336 -448 0
v -320 -448 0
v -304 -464 0
v -320 -464 0
v -320 -448 0
v -304 -448 0
v -976 -480 0
v -992 -480 0
v -992 -464 0
v -976 -464 0
v -960 -480 0
v -976 -480 0
v -976 -464 0
v -960 -464 0
v -976 -496 0
v -992 -496 0
v -992 -480 0
v -976 -480 0
v -960 -496 0
v -976 -496 0
v -976 -480 0
v -960 -480 0

# Texture cooridinates (Count = 30)
vt 0.48 0.92
vt 0.64 0.92
vt 0.64 1
vt 0.48 1
vt 0.32 0.92
vt 0.32 1
vt 0.48 0.76
vt 0.64 0.76
vt 0.64 0.84
vt 0.48 0.84
vt 0.32 0.76
vt 0.32 0.84
vt 0.48 0.68
vt 0.64 0.68
vt 0.32 0.68
vt 0.48 0.44
vt 0.64 0.44
vt 0.64 0.52
vt 0.48 0.52
vt 0.32 0.44
vt 0.32 0.52
vt 0.48 0.6
vt 0.64 0.6
vt 0.32 0.6
vt 0.48 0.36
vt 0.64 0.36
vt 0.32 0.36
vt 0.48 0.28
vt 0.64 0.28
vt 0.32 0.28

# Normal
vn 0 0 -1

# Mesh description
g Town_mesh_0009

# Faces
f 1/1/1 2/2/1 3/3/1 4/4/1
f 5/5/1 6/1/1 7/4/1 8/6/1
f 9/7/1 10/8/1 11/9/1 12/10/1
f 13/11/1 14/7/1 15/10/1 16/12/1
f 17/13/1 18/14/1 19/8/1 20/7/1
f 21/15/1 22/13/1 23/7/1 24/11/1
f 25/16/1 26/17/1 27/18/1 28/19/1
f 29/20/1 30/16/1 31/19/1 32/21/1
f 33/22/1 34/23/1 35/14/1 36/13/1
f 37/24/1 38/22/1 39/13/1 40/15/1
f 41/25/1 42/26/1 43/17/1 44/16/1
f 45/27/1 46/25/1 47/16/1 48/20/1
f 49/16/1 50/17/1 51/18/1 52/19/1
f 53/20/1 54/16/1 55/19/1 56/21/1
f 57/28/1 58/29/1 59/26/1 60/25/1
f 61/30/1 62/28/1 63/25/1 64/27/1
f 65/25/1 66/26/1 67/17/1 68/16/1
f 69/27/1 70/25/1 71/16/1 72/20/1
f 73/28/1 74/29/1 75/26/1 76/25/1
f 77/30/1 78/28/1 79/25/1 80/27/1

