# Tiled2Unity generated file. Do not modify by hand.
# Wavefront file for 'Town_mesh_0004.obj'

# Vertices (Count = 576)
v -384 -304 0
v -400 -304 0
v -400 -288 0
v -384 -288 0
v -368 -304 0
v -384 -304 0
v -384 -288 0
v -368 -288 0
v -352 -304 0
v -368 -304 0
v -368 -288 0
v -352 -288 0
v -336 -304 0
v -352 -304 0
v -352 -288 0
v -336 -288 0
v -320 -304 0
v -336 -304 0
v -336 -288 0
v -320 -288 0
v -304 -304 0
v -320 -304 0
v -320 -288 0
v -304 -288 0
v -288 -304 0
v -304 -304 0
v -304 -288 0
v -288 -288 0
v -272 -304 0
v -288 -304 0
v -288 -288 0
v -272 -288 0
v -256 -304 0
v -272 -304 0
v -272 -288 0
v -256 -288 0
v -240 -304 0
v -256 -304 0
v -256 -288 0
v -240 -288 0
v -224 -304 0
v -240 -304 0
v -240 -288 0
v -224 -288 0
v -208 -304 0
v -224 -304 0
v -224 -288 0
v -208 -288 0
v -192 -304 0
v -208 -304 0
v -208 -288 0
v -192 -288 0
v -176 -304 0
v -192 -304 0
v -192 -288 0
v -176 -288 0
v -160 -304 0
v -176 -304 0
v -176 -288 0
v -160 -288 0
v -144 -304 0
v -160 -304 0
v -160 -288 0
v -144 -288 0
v -112 -304 0
v -128 -304 0
v -128 -288 0
v -112 -288 0
v -96 -304 0
v -112 -304 0
v -112 -288 0
v -96 -288 0
v -80 -304 0
v -96 -304 0
v -96 -288 0
v -80 -288 0
v -64 -304 0
v -80 -304 0
v -80 -288 0
v -64 -288 0
v -48 -304 0
v -64 -304 0
v -64 -288 0
v -48 -288 0
v -32 -304 0
v -48 -304 0
v -48 -288 0
v -32 -288 0
v -16 -304 0
v -32 -304 0
v -32 -288 0
v -16 -288 0
v 0 -304 0
v -16 -304 0
v -16 -288 0
v 0 -288 0
v -384 -320 0
v -400 -320 0
v -400 -304 0
v -384 -304 0
v -368 -320 0
v -384 -320 0
v -384 -304 0
v -368 -304 0
v -352 -320 0
v -368 -320 0
v -368 -304 0
v -352 -304 0
v -336 -320 0
v -352 -320 0
v -352 -304 0
v -336 -304 0
v -320 -320 0
v -336 -320 0
v -336 -304 0
v -320 -304 0
v -304 -320 0
v -320 -320 0
v -320 -304 0
v -304 -304 0
v -288 -320 0
v -304 -320 0
v -304 -304 0
v -288 -304 0
v -272 -320 0
v -288 -320 0
v -288 -304 0
v -272 -304 0
v -256 -320 0
v -272 -320 0
v -272 -304 0
v -256 -304 0
v -240 -320 0
v -256 -320 0
v -256 -304 0
v -240 -304 0
v -224 -320 0
v -240 -320 0
v -240 -304 0
v -224 -304 0
v -208 -320 0
v -224 -320 0
v -224 -304 0
v -208 -304 0
v -192 -320 0
v -208 -320 0
v -208 -304 0
v -192 -304 0
v -176 -320 0
v -192 -320 0
v -192 -304 0
v -176 -304 0
v -160 -320 0
v -176 -320 0
v -176 -304 0
v -160 -304 0
v -144 -320 0
v -160 -320 0
v -160 -304 0
v -144 -304 0
v -112 -320 0
v -128 -320 0
v -128 -304 0
v -112 -304 0
v -96 -320 0
v -112 -320 0
v -112 -304 0
v -96 -304 0
v -80 -320 0
v -96 -320 0
v -96 -304 0
v -80 -304 0
v -64 -320 0
v -80 -320 0
v -80 -304 0
v -64 -304 0
v -48 -320 0
v -64 -320 0
v -64 -304 0
v -48 -304 0
v -32 -320 0
v -48 -320 0
v -48 -304 0
v -32 -304 0
v -16 -320 0
v -32 -320 0
v -32 -304 0
v -16 -304 0
v 0 -320 0
v -16 -320 0
v -16 -304 0
v 0 -304 0
v -384 -336 0
v -400 -336 0
v -400 -320 0
v -384 -320 0
v -368 -336 0
v -384 -336 0
v -384 -320 0
v -368 -320 0
v -352 -336 0
v -368 -336 0
v -368 -320 0
v -352 -320 0
v -336 -336 0
v -352 -336 0
v -352 -320 0
v -336 -320 0
v -320 -336 0
v -336 -336 0
v -336 -320 0
v -320 -320 0
v -304 -336 0
v -320 -336 0
v -320 -320 0
v -304 -320 0
v -288 -336 0
v -304 -336 0
v -304 -320 0
v -288 -320 0
v -272 -336 0
v -288 -336 0
v -288 -320 0
v -272 -320 0
v -256 -336 0
v -272 -336 0
v -272 -320 0
v -256 -320 0
v -240 -336 0
v -256 -336 0
v -256 -320 0
v -240 -320 0
v -224 -336 0
v -240 -336 0
v -240 -320 0
v -224 -320 0
v -208 -336 0
v -224 -336 0
v -224 -320 0
v -208 -320 0
v -192 -336 0
v -208 -336 0
v -208 -320 0
v -192 -320 0
v -176 -336 0
v -192 -336 0
v -192 -320 0
v -176 -320 0
v -160 -336 0
v -176 -336 0
v -176 -320 0
v -160 -320 0
v -144 -336 0
v -160 -336 0
v -160 -320 0
v -144 -320 0
v -112 -336 0
v -128 -336 0
v -128 -320 0
v -112 -320 0
v -96 -336 0
v -112 -336 0
v -112 -320 0
v -96 -320 0
v -80 -336 0
v -96 -336 0
v -96 -320 0
v -80 -320 0
v -64 -336 0
v -80 -336 0
v -80 -320 0
v -64 -320 0
v -48 -336 0
v -64 -336 0
v -64 -320 0
v -48 -320 0
v -32 -336 0
v -48 -336 0
v -48 -320 0
v -32 -320 0
v -16 -336 0
v -32 -336 0
v -32 -320 0
v -16 -320 0
v 0 -336 0
v -16 -336 0
v -16 -320 0
v 0 -320 0
v -384 -352 0
v -400 -352 0
v -400 -336 0
v -384 -336 0
v -368 -352 0
v -384 -352 0
v -384 -336 0
v -368 -336 0
v -352 -352 0
v -368 -352 0
v -368 -336 0
v -352 -336 0
v -336 -352 0
v -352 -352 0
v -352 -336 0
v -336 -336 0
v -320 -352 0
v -336 -352 0
v -336 -336 0
v -320 -336 0
v -304 -352 0
v -320 -352 0
v -320 -336 0
v -304 -336 0
v -288 -352 0
v -304 -352 0
v -304 -336 0
v -288 -336 0
v -272 -352 0
v -288 -352 0
v -288 -336 0
v -272 -336 0
v -256 -352 0
v -272 -352 0
v -272 -336 0
v -256 -336 0
v -240 -352 0
v -256 -352 0
v -256 -336 0
v -240 -336 0
v -224 -352 0
v -240 -352 0
v -240 -336 0
v -224 -336 0
v -208 -352 0
v -224 -352 0
v -224 -336 0
v -208 -336 0
v -192 -352 0
v -208 -352 0
v -208 -336 0
v -192 -336 0
v -176 -352 0
v -192 -352 0
v -192 -336 0
v -176 -336 0
v -160 -352 0
v -176 -352 0
v -176 -336 0
v -160 -336 0
v -144 -352 0
v -160 -352 0
v -160 -336 0
v -144 -336 0
v -112 -352 0
v -128 -352 0
v -128 -336 0
v -112 -336 0
v -96 -352 0
v -112 -352 0
v -112 -336 0
v -96 -336 0
v -80 -352 0
v -96 -352 0
v -96 -336 0
v -80 -336 0
v -64 -352 0
v -80 -352 0
v -80 -336 0
v -64 -336 0
v -48 -352 0
v -64 -352 0
v -64 -336 0
v -48 -336 0
v -32 -352 0
v -48 -352 0
v -48 -336 0
v -32 -336 0
v -16 -352 0
v -32 -352 0
v -32 -336 0
v -16 -336 0
v 0 -352 0
v -16 -352 0
v -16 -336 0
v 0 -336 0
v -384 -368 0
v -400 -368 0
v -400 -352 0
v -384 -352 0
v -368 -368 0
v -384 -368 0
v -384 -352 0
v -368 -352 0
v -352 -368 0
v -368 -368 0
v -368 -352 0
v -352 -352 0
v -336 -368 0
v -352 -368 0
v -352 -352 0
v -336 -352 0
v -320 -368 0
v -336 -368 0
v -336 -352 0
v -320 -352 0
v -304 -368 0
v -320 -368 0
v -320 -352 0
v -304 -352 0
v -288 -368 0
v -304 -368 0
v -304 -352 0
v -288 -352 0
v -272 -368 0
v -288 -368 0
v -288 -352 0
v -272 -352 0
v -256 -368 0
v -272 -368 0
v -272 -352 0
v -256 -352 0
v -240 -368 0
v -256 -368 0
v -256 -352 0
v -240 -352 0
v -224 -368 0
v -240 -368 0
v -240 -352 0
v -224 -352 0
v -208 -368 0
v -224 -368 0
v -224 -352 0
v -208 -352 0
v -192 -368 0
v -208 -368 0
v -208 -352 0
v -192 -352 0
v -176 -368 0
v -192 -368 0
v -192 -352 0
v -176 -352 0
v -160 -368 0
v -176 -368 0
v -176 -352 0
v -160 -352 0
v -144 -368 0
v -160 -368 0
v -160 -352 0
v -144 -352 0
v -112 -368 0
v -128 -368 0
v -128 -352 0
v -112 -352 0
v -96 -368 0
v -112 -368 0
v -112 -352 0
v -96 -352 0
v -80 -368 0
v -96 -368 0
v -96 -352 0
v -80 -352 0
v -64 -368 0
v -80 -368 0
v -80 -352 0
v -64 -352 0
v -48 -368 0
v -64 -368 0
v -64 -352 0
v -48 -352 0
v -32 -368 0
v -48 -368 0
v -48 -352 0
v -32 -352 0
v -16 -368 0
v -32 -368 0
v -32 -352 0
v -16 -352 0
v 0 -368 0
v -16 -368 0
v -16 -352 0
v 0 -352 0
v -384 -384 0
v -400 -384 0
v -400 -368 0
v -384 -368 0
v -368 -384 0
v -384 -384 0
v -384 -368 0
v -368 -368 0
v -352 -384 0
v -368 -384 0
v -368 -368 0
v -352 -368 0
v -336 -384 0
v -352 -384 0
v -352 -368 0
v -336 -368 0
v -320 -384 0
v -336 -384 0
v -336 -368 0
v -320 -368 0
v -304 -384 0
v -320 -384 0
v -320 -368 0
v -304 -368 0
v -288 -384 0
v -304 -384 0
v -304 -368 0
v -288 -368 0
v -272 -384 0
v -288 -384 0
v -288 -368 0
v -272 -368 0
v -256 -384 0
v -272 -384 0
v -272 -368 0
v -256 -368 0
v -240 -384 0
v -256 -384 0
v -256 -368 0
v -240 -368 0
v -224 -384 0
v -240 -384 0
v -240 -368 0
v -224 -368 0
v -208 -384 0
v -224 -384 0
v -224 -368 0
v -208 -368 0
v -192 -384 0
v -208 -384 0
v -208 -368 0
v -192 -368 0
v -176 -384 0
v -192 -384 0
v -192 -368 0
v -176 -368 0
v -160 -384 0
v -176 -384 0
v -176 -368 0
v -160 -368 0
v -144 -384 0
v -160 -384 0
v -160 -368 0
v -144 -368 0
v -112 -384 0
v -128 -384 0
v -128 -368 0
v -112 -368 0
v -96 -384 0
v -112 -384 0
v -112 -368 0
v -96 -368 0
v -80 -384 0
v -96 -384 0
v -96 -368 0
v -80 -368 0
v -64 -384 0
v -80 -384 0
v -80 -368 0
v -64 -368 0
v -48 -384 0
v -64 -384 0
v -64 -368 0
v -48 -368 0
v -32 -384 0
v -48 -384 0
v -48 -368 0
v -32 -368 0
v -16 -384 0
v -32 -384 0
v -32 -368 0
v -16 -368 0
v 0 -384 0
v -16 -384 0
v -16 -368 0
v 0 -368 0

# Texture cooridinates (Count = 63)
vt 0.8533334 0.7538462
vt 0.96 0.7538462
vt 0.96 0.8769231
vt 0.8533334 0.8769231
vt 0.7466667 0.7538462
vt 0.7466667 0.8769231
vt 0.64 0.7538462
vt 0.64 0.8769231
vt 0.5333334 0.7538462
vt 0.5333334 0.8769231
vt 0.4266667 0.7538462
vt 0.4266667 0.8769231
vt 0.32 0.7538462
vt 0.32 0.8769231
vt 0.2133333 0.7538462
vt 0.2133333 0.8769231
vt 0.1066667 0.7538462
vt 0.1066667 0.8769231
vt 0.8533334 0.6307693
vt 0.96 0.6307693
vt 0.7466667 0.6307693
vt 0.64 0.6307693
vt 0.5333334 0.6307693
vt 0.4266667 0.6307693
vt 0.32 0.6307693
vt 0.2133333 0.6307693
vt 0.1066667 0.6307693
vt 0.8533334 0.5076923
vt 0.96 0.5076923
vt 0.7466667 0.5076923
vt 0.64 0.5076923
vt 0.5333334 0.5076923
vt 0.4266667 0.5076923
vt 0.32 0.5076923
vt 0.2133333 0.5076923
vt 0.1066667 0.5076923
vt 0.8533334 0.3846154
vt 0.96 0.3846154
vt 0.7466667 0.3846154
vt 0.64 0.3846154
vt 0.5333334 0.3846154
vt 0.4266667 0.3846154
vt 0.32 0.3846154
vt 0.2133333 0.3846154
vt 0.1066667 0.3846154
vt 0.8533334 0.2615384
vt 0.96 0.2615384
vt 0.7466667 0.2615384
vt 0.64 0.2615384
vt 0.5333334 0.2615384
vt 0.4266667 0.2615384
vt 0.32 0.2615384
vt 0.2133333 0.2615384
vt 0.1066667 0.2615384
vt 0.8533334 0.1384615
vt 0.96 0.1384615
vt 0.7466667 0.1384615
vt 0.64 0.1384615
vt 0.5333334 0.1384615
vt 0.4266667 0.1384615
vt 0.32 0.1384615
vt 0.2133333 0.1384615
vt 0.1066667 0.1384615

# Normal
vn 0 0 -1

# Mesh description
g Town_mesh_0004

# Faces
f 1/1/1 2/2/1 3/3/1 4/4/1
f 5/5/1 6/1/1 7/4/1 8/6/1
f 9/7/1 10/5/1 11/6/1 12/8/1
f 13/9/1 14/7/1 15/8/1 16/10/1
f 17/11/1 18/9/1 19/10/1 20/12/1
f 21/13/1 22/11/1 23/12/1 24/14/1
f 25/15/1 26/13/1 27/14/1 28/16/1
f 29/17/1 30/15/1 31/16/1 32/18/1
f 33/1/1 34/2/1 35/3/1 36/4/1
f 37/5/1 38/1/1 39/4/1 40/6/1
f 41/7/1 42/5/1 43/6/1 44/8/1
f 45/9/1 46/7/1 47/8/1 48/10/1
f 49/11/1 50/9/1 51/10/1 52/12/1
f 53/13/1 54/11/1 55/12/1 56/14/1
f 57/15/1 58/13/1 59/14/1 60/16/1
f 61/17/1 62/15/1 63/16/1 64/18/1
f 65/1/1 66/2/1 67/3/1 68/4/1
f 69/5/1 70/1/1 71/4/1 72/6/1
f 73/7/1 74/5/1 75/6/1 76/8/1
f 77/9/1 78/7/1 79/8/1 80/10/1
f 81/11/1 82/9/1 83/10/1 84/12/1
f 85/13/1 86/11/1 87/12/1 88/14/1
f 89/15/1 90/13/1 91/14/1 92/16/1
f 93/17/1 94/15/1 95/16/1 96/18/1
f 97/19/1 98/20/1 99/2/1 100/1/1
f 101/21/1 102/19/1 103/1/1 104/5/1
f 105/22/1 106/21/1 107/5/1 108/7/1
f 109/23/1 110/22/1 111/7/1 112/9/1
f 113/24/1 114/23/1 115/9/1 116/11/1
f 117/25/1 118/24/1 119/11/1 120/13/1
f 121/26/1 122/25/1 123/13/1 124/15/1
f 125/27/1 126/26/1 127/15/1 128/17/1
f 129/19/1 130/20/1 131/2/1 132/1/1
f 133/21/1 134/19/1 135/1/1 136/5/1
f 137/22/1 138/21/1 139/5/1 140/7/1
f 141/23/1 142/22/1 143/7/1 144/9/1
f 145/24/1 146/23/1 147/9/1 148/11/1
f 149/25/1 150/24/1 151/11/1 152/13/1
f 153/26/1 154/25/1 155/13/1 156/15/1
f 157/27/1 158/26/1 159/15/1 160/17/1
f 161/19/1 162/20/1 163/2/1 164/1/1
f 165/21/1 166/19/1 167/1/1 168/5/1
f 169/22/1 170/21/1 171/5/1 172/7/1
f 173/23/1 174/22/1 175/7/1 176/9/1
f 177/24/1 178/23/1 179/9/1 180/11/1
f 181/25/1 182/24/1 183/11/1 184/13/1
f 185/26/1 186/25/1 187/13/1 188/15/1
f 189/27/1 190/26/1 191/15/1 192/17/1
f 193/28/1 194/29/1 195/20/1 196/19/1
f 197/30/1 198/28/1 199/19/1 200/21/1
f 201/31/1 202/30/1 203/21/1 204/22/1
f 205/32/1 206/31/1 207/22/1 208/23/1
f 209/33/1 210/32/1 211/23/1 212/24/1
f 213/34/1 214/33/1 215/24/1 216/25/1
f 217/35/1 218/34/1 219/25/1 220/26/1
f 221/36/1 222/35/1 223/26/1 224/27/1
f 225/28/1 226/29/1 227/20/1 228/19/1
f 229/30/1 230/28/1 231/19/1 232/21/1
f 233/31/1 234/30/1 235/21/1 236/22/1
f 237/32/1 238/31/1 239/22/1 240/23/1
f 241/33/1 242/32/1 243/23/1 244/24/1
f 245/34/1 246/33/1 247/24/1 248/25/1
f 249/35/1 250/34/1 251/25/1 252/26/1
f 253/36/1 254/35/1 255/26/1 256/27/1
f 257/28/1 258/29/1 259/20/1 260/19/1
f 261/30/1 262/28/1 263/19/1 264/21/1
f 265/31/1 266/30/1 267/21/1 268/22/1
f 269/32/1 270/31/1 271/22/1 272/23/1
f 273/33/1 274/32/1 275/23/1 276/24/1
f 277/34/1 278/33/1 279/24/1 280/25/1
f 281/35/1 282/34/1 283/25/1 284/26/1
f 285/36/1 286/35/1 287/26/1 288/27/1
f 289/37/1 290/38/1 291/29/1 292/28/1
f 293/39/1 294/37/1 295/28/1 296/30/1
f 297/40/1 298/39/1 299/30/1 300/31/1
f 301/41/1 302/40/1 303/31/1 304/32/1
f 305/42/1 306/41/1 307/32/1 308/33/1
f 309/43/1 310/42/1 311/33/1 312/34/1
f 313/44/1 314/43/1 315/34/1 316/35/1
f 317/45/1 318/44/1 319/35/1 320/36/1
f 321/37/1 322/38/1 323/29/1 324/28/1
f 325/39/1 326/37/1 327/28/1 328/30/1
f 329/40/1 330/39/1 331/30/1 332/31/1
f 333/41/1 334/40/1 335/31/1 336/32/1
f 337/42/1 338/41/1 339/32/1 340/33/1
f 341/43/1 342/42/1 343/33/1 344/34/1
f 345/44/1 346/43/1 347/34/1 348/35/1
f 349/45/1 350/44/1 351/35/1 352/36/1
f 353/37/1 354/38/1 355/29/1 356/28/1
f 357/39/1 358/37/1 359/28/1 360/30/1
f 361/40/1 362/39/1 363/30/1 364/31/1
f 365/41/1 366/40/1 367/31/1 368/32/1
f 369/42/1 370/41/1 371/32/1 372/33/1
f 373/43/1 374/42/1 375/33/1 376/34/1
f 377/44/1 378/43/1 379/34/1 380/35/1
f 381/45/1 382/44/1 383/35/1 384/36/1
f 385/46/1 386/47/1 387/38/1 388/37/1
f 389/48/1 390/46/1 391/37/1 392/39/1
f 393/49/1 394/48/1 395/39/1 396/40/1
f 397/50/1 398/49/1 399/40/1 400/41/1
f 401/51/1 402/50/1 403/41/1 404/42/1
f 405/52/1 406/51/1 407/42/1 408/43/1
f 409/53/1 410/52/1 411/43/1 412/44/1
f 413/54/1 414/53/1 415/44/1 416/45/1
f 417/46/1 418/47/1 419/38/1 420/37/1
f 421/48/1 422/46/1 423/37/1 424/39/1
f 425/49/1 426/48/1 427/39/1 428/40/1
f 429/50/1 430/49/1 431/40/1 432/41/1
f 433/51/1 434/50/1 435/41/1 436/42/1
f 437/52/1 438/51/1 439/42/1 440/43/1
f 441/53/1 442/52/1 443/43/1 444/44/1
f 445/54/1 446/53/1 447/44/1 448/45/1
f 449/46/1 450/47/1 451/38/1 452/37/1
f 453/48/1 454/46/1 455/37/1 456/39/1
f 457/49/1 458/48/1 459/39/1 460/40/1
f 461/50/1 462/49/1 463/40/1 464/41/1
f 465/51/1 466/50/1 467/41/1 468/42/1
f 469/52/1 470/51/1 471/42/1 472/43/1
f 473/53/1 474/52/1 475/43/1 476/44/1
f 477/54/1 478/53/1 479/44/1 480/45/1
f 481/55/1 482/56/1 483/47/1 484/46/1
f 485/57/1 486/55/1 487/46/1 488/48/1
f 489/58/1 490/57/1 491/48/1 492/49/1
f 493/59/1 494/58/1 495/49/1 496/50/1
f 497/60/1 498/59/1 499/50/1 500/51/1
f 501/61/1 502/60/1 503/51/1 504/52/1
f 505/62/1 506/61/1 507/52/1 508/53/1
f 509/63/1 510/62/1 511/53/1 512/54/1
f 513/55/1 514/56/1 515/47/1 516/46/1
f 517/57/1 518/55/1 519/46/1 520/48/1
f 521/58/1 522/57/1 523/48/1 524/49/1
f 525/59/1 526/58/1 527/49/1 528/50/1
f 529/60/1 530/59/1 531/50/1 532/51/1
f 533/61/1 534/60/1 535/51/1 536/52/1
f 537/62/1 538/61/1 539/52/1 540/53/1
f 541/63/1 542/62/1 543/53/1 544/54/1
f 545/55/1 546/56/1 547/47/1 548/46/1
f 549/57/1 550/55/1 551/46/1 552/48/1
f 553/58/1 554/57/1 555/48/1 556/49/1
f 557/59/1 558/58/1 559/49/1 560/50/1
f 561/60/1 562/59/1 563/50/1 564/51/1
f 565/61/1 566/60/1 567/51/1 568/52/1
f 569/62/1 570/61/1 571/52/1 572/53/1
f 573/63/1 574/62/1 575/53/1 576/54/1

