# Tiled2Unity generated file. Do not modify by hand.
# Wavefront file for 'Town_mesh_0007.obj'

# Vertices (Count = 240)
v -672 -112 0
v -688 -112 0
v -688 -96 0
v -672 -96 0
v -656 -112 0
v -672 -112 0
v -672 -96 0
v -656 -96 0
v -640 -112 0
v -656 -112 0
v -656 -96 0
v -640 -96 0
v -464 -112 0
v -480 -112 0
v -480 -96 0
v -464 -96 0
v -448 -112 0
v -464 -112 0
v -464 -96 0
v -448 -96 0
v -432 -112 0
v -448 -112 0
v -448 -96 0
v -432 -96 0
v -672 -240 0
v -688 -240 0
v -688 -224 0
v -672 -224 0
v -656 -240 0
v -672 -240 0
v -672 -224 0
v -656 -224 0
v -640 -240 0
v -656 -240 0
v -656 -224 0
v -640 -224 0
v -464 -240 0
v -480 -240 0
v -480 -224 0
v -464 -224 0
v -448 -240 0
v -464 -240 0
v -464 -224 0
v -448 -224 0
v -432 -240 0
v -448 -240 0
v -448 -224 0
v -432 -224 0
v -672 -368 0
v -688 -368 0
v -688 -352 0
v -672 -352 0
v -656 -368 0
v -672 -368 0
v -672 -352 0
v -656 -352 0
v -640 -368 0
v -656 -368 0
v -656 -352 0
v -640 -352 0
v -464 -368 0
v -480 -368 0
v -480 -352 0
v -464 -352 0
v -448 -368 0
v -464 -368 0
v -464 -352 0
v -448 -352 0
v -432 -368 0
v -448 -368 0
v -448 -352 0
v -432 -352 0
v -784 -496 0
v -800 -496 0
v -800 -480 0
v -784 -480 0
v -768 -496 0
v -784 -496 0
v -784 -480 0
v -768 -480 0
v -752 -496 0
v -768 -496 0
v -768 -480 0
v -752 -480 0
v -672 -496 0
v -688 -496 0
v -688 -480 0
v -672 -480 0
v -656 -496 0
v -672 -496 0
v -672 -480 0
v -656 -480 0
v -640 -496 0
v -656 -496 0
v -656 -480 0
v -640 -480 0
v -464 -496 0
v -480 -496 0
v -480 -480 0
v -464 -480 0
v -448 -496 0
v -464 -496 0
v -464 -480 0
v -448 -480 0
v -432 -496 0
v -448 -496 0
v -448 -480 0
v -432 -480 0
v -352 -496 0
v -368 -496 0
v -368 -480 0
v -352 -480 0
v -336 -496 0
v -352 -496 0
v -352 -480 0
v -336 -480 0
v -320 -496 0
v -336 -496 0
v -336 -480 0
v -320 -480 0
v -768 -784 0
v -784 -784 0
v -784 -768 0
v -768 -768 0
v -752 -784 0
v -768 -784 0
v -768 -768 0
v -752 -768 0
v -736 -784 0
v -752 -784 0
v -752 -768 0
v -736 -768 0
v -672 -784 0
v -688 -784 0
v -688 -768 0
v -672 -768 0
v -656 -784 0
v -672 -784 0
v -672 -768 0
v -656 -768 0
v -640 -784 0
v -656 -784 0
v -656 -768 0
v -640 -768 0
v -464 -784 0
v -480 -784 0
v -480 -768 0
v -464 -768 0
v -448 -784 0
v -464 -784 0
v -464 -768 0
v -448 -768 0
v -432 -784 0
v -448 -784 0
v -448 -768 0
v -432 -768 0
v -368 -784 0
v -384 -784 0
v -384 -768 0
v -368 -768 0
v -352 -784 0
v -368 -784 0
v -368 -768 0
v -352 -768 0
v -336 -784 0
v -352 -784 0
v -352 -768 0
v -336 -768 0
v -672 -912 0
v -688 -912 0
v -688 -896 0
v -672 -896 0
v -656 -912 0
v -672 -912 0
v -672 -896 0
v -656 -896 0
v -640 -912 0
v -656 -912 0
v -656 -896 0
v -640 -896 0
v -464 -912 0
v -480 -912 0
v -480 -896 0
v -464 -896 0
v -448 -912 0
v -464 -912 0
v -464 -896 0
v -448 -896 0
v -432 -912 0
v -448 -912 0
v -448 -896 0
v -432 -896 0
v -672 -1040 0
v -688 -1040 0
v -688 -1024 0
v -672 -1024 0
v -656 -1040 0
v -672 -1040 0
v -672 -1024 0
v -656 -1024 0
v -640 -1040 0
v -656 -1040 0
v -656 -1024 0
v -640 -1024 0
v -464 -1040 0
v -480 -1040 0
v -480 -1024 0
v -464 -1024 0
v -448 -1040 0
v -464 -1040 0
v -464 -1024 0
v -448 -1024 0
v -432 -1040 0
v -448 -1040 0
v -448 -1024 0
v -432 -1024 0
v -672 -1168 0
v -688 -1168 0
v -688 -1152 0
v -672 -1152 0
v -656 -1168 0
v -672 -1168 0
v -672 -1152 0
v -656 -1152 0
v -640 -1168 0
v -656 -1168 0
v -656 -1152 0
v -640 -1152 0
v -464 -1168 0
v -480 -1168 0
v -480 -1152 0
v -464 -1152 0
v -448 -1168 0
v -464 -1168 0
v -464 -1152 0
v -448 -1152 0
v -432 -1168 0
v -448 -1168 0
v -448 -1152 0
v -432 -1152 0

# Texture cooridinates (Count = 8)
vt 0.5333334 0.1111111
vt 0.7111111 0.1111111
vt 0.7111111 0.2592593
vt 0.5333334 0.2592593
vt 0.3555556 0.1111111
vt 0.3555556 0.2592593
vt 0.1777778 0.1111111
vt 0.1777778 0.2592593

# Normal
vn 0 0 -1

# Mesh description
g Town_mesh_0007

# Faces
f 1/1/1 2/2/1 3/3/1 4/4/1
f 5/5/1 6/1/1 7/4/1 8/6/1
f 9/7/1 10/5/1 11/6/1 12/8/1
f 13/1/1 14/2/1 15/3/1 16/4/1
f 17/5/1 18/1/1 19/4/1 20/6/1
f 21/7/1 22/5/1 23/6/1 24/8/1
f 25/1/1 26/2/1 27/3/1 28/4/1
f 29/5/1 30/1/1 31/4/1 32/6/1
f 33/7/1 34/5/1 35/6/1 36/8/1
f 37/1/1 38/2/1 39/3/1 40/4/1
f 41/5/1 42/1/1 43/4/1 44/6/1
f 45/7/1 46/5/1 47/6/1 48/8/1
f 49/1/1 50/2/1 51/3/1 52/4/1
f 53/5/1 54/1/1 55/4/1 56/6/1
f 57/7/1 58/5/1 59/6/1 60/8/1
f 61/1/1 62/2/1 63/3/1 64/4/1
f 65/5/1 66/1/1 67/4/1 68/6/1
f 69/7/1 70/5/1 71/6/1 72/8/1
f 73/1/1 74/2/1 75/3/1 76/4/1
f 77/5/1 78/1/1 79/4/1 80/6/1
f 81/7/1 82/5/1 83/6/1 84/8/1
f 85/1/1 86/2/1 87/3/1 88/4/1
f 89/5/1 90/1/1 91/4/1 92/6/1
f 93/7/1 94/5/1 95/6/1 96/8/1
f 97/1/1 98/2/1 99/3/1 100/4/1
f 101/5/1 102/1/1 103/4/1 104/6/1
f 105/7/1 106/5/1 107/6/1 108/8/1
f 109/1/1 110/2/1 111/3/1 112/4/1
f 113/5/1 114/1/1 115/4/1 116/6/1
f 117/7/1 118/5/1 119/6/1 120/8/1
f 121/1/1 122/2/1 123/3/1 124/4/1
f 125/5/1 126/1/1 127/4/1 128/6/1
f 129/7/1 130/5/1 131/6/1 132/8/1
f 133/1/1 134/2/1 135/3/1 136/4/1
f 137/5/1 138/1/1 139/4/1 140/6/1
f 141/7/1 142/5/1 143/6/1 144/8/1
f 145/1/1 146/2/1 147/3/1 148/4/1
f 149/5/1 150/1/1 151/4/1 152/6/1
f 153/7/1 154/5/1 155/6/1 156/8/1
f 157/1/1 158/2/1 159/3/1 160/4/1
f 161/5/1 162/1/1 163/4/1 164/6/1
f 165/7/1 166/5/1 167/6/1 168/8/1
f 169/1/1 170/2/1 171/3/1 172/4/1
f 173/5/1 174/1/1 175/4/1 176/6/1
f 177/7/1 178/5/1 179/6/1 180/8/1
f 181/1/1 182/2/1 183/3/1 184/4/1
f 185/5/1 186/1/1 187/4/1 188/6/1
f 189/7/1 190/5/1 191/6/1 192/8/1
f 193/1/1 194/2/1 195/3/1 196/4/1
f 197/5/1 198/1/1 199/4/1 200/6/1
f 201/7/1 202/5/1 203/6/1 204/8/1
f 205/1/1 206/2/1 207/3/1 208/4/1
f 209/5/1 210/1/1 211/4/1 212/6/1
f 213/7/1 214/5/1 215/6/1 216/8/1
f 217/1/1 218/2/1 219/3/1 220/4/1
f 221/5/1 222/1/1 223/4/1 224/6/1
f 225/7/1 226/5/1 227/6/1 228/8/1
f 229/1/1 230/2/1 231/3/1 232/4/1
f 233/5/1 234/1/1 235/4/1 236/6/1
f 237/7/1 238/5/1 239/6/1 240/8/1

