# Tiled2Unity generated file. Do not modify by hand.
# Wavefront file for 'Rodrik-3_mesh_0032.obj'

# Vertices (Count = 192)
v -592 -512 0
v -608 -512 0
v -608 -496 0
v -592 -496 0
v -576 -512 0
v -592 -512 0
v -592 -496 0
v -576 -496 0
v -560 -512 0
v -576 -512 0
v -576 -496 0
v -560 -496 0
v -544 -512 0
v -560 -512 0
v -560 -496 0
v -544 -496 0
v -592 -528 0
v -608 -528 0
v -608 -512 0
v -592 -512 0
v -576 -528 0
v -592 -528 0
v -592 -512 0
v -576 -512 0
v -560 -528 0
v -576 -528 0
v -576 -512 0
v -560 -512 0
v -544 -528 0
v -560 -528 0
v -560 -512 0
v -544 -512 0
v -592 -576 0
v -608 -576 0
v -608 -560 0
v -592 -560 0
v -576 -576 0
v -592 -576 0
v -592 -560 0
v -576 -560 0
v -560 -576 0
v -576 -576 0
v -576 -560 0
v -560 -560 0
v -544 -576 0
v -560 -576 0
v -560 -560 0
v -544 -560 0
v -688 -592 0
v -704 -592 0
v -704 -576 0
v -688 -576 0
v -608 -592 0
v -624 -592 0
v -624 -576 0
v -608 -576 0
v -592 -592 0
v -608 -592 0
v -608 -576 0
v -592 -576 0
v -576 -592 0
v -592 -592 0
v -592 -576 0
v -576 -576 0
v -560 -592 0
v -576 -592 0
v -576 -576 0
v -560 -576 0
v -544 -592 0
v -560 -592 0
v -560 -576 0
v -544 -576 0
v -528 -592 0
v -544 -592 0
v -544 -576 0
v -528 -576 0
v -448 -592 0
v -464 -592 0
v -464 -576 0
v -448 -576 0
v -688 -608 0
v -704 -608 0
v -704 -592 0
v -688 -592 0
v -608 -608 0
v -624 -608 0
v -624 -592 0
v -608 -592 0
v -528 -608 0
v -544 -608 0
v -544 -592 0
v -528 -592 0
v -448 -608 0
v -464 -608 0
v -464 -592 0
v -448 -592 0
v -688 -624 0
v -704 -624 0
v -704 -608 0
v -688 -608 0
v -608 -624 0
v -624 -624 0
v -624 -608 0
v -608 -608 0
v -528 -624 0
v -544 -624 0
v -544 -608 0
v -528 -608 0
v -448 -624 0
v -464 -624 0
v -464 -608 0
v -448 -608 0
v -688 -640 0
v -704 -640 0
v -704 -624 0
v -688 -624 0
v -608 -640 0
v -624 -640 0
v -624 -624 0
v -608 -624 0
v -592 -640 0
v -608 -640 0
v -608 -624 0
v -592 -624 0
v -576 -640 0
v -592 -640 0
v -592 -624 0
v -576 -624 0
v -560 -640 0
v -576 -640 0
v -576 -624 0
v -560 -624 0
v -544 -640 0
v -560 -640 0
v -560 -624 0
v -544 -624 0
v -528 -640 0
v -544 -640 0
v -544 -624 0
v -528 -624 0
v -448 -640 0
v -464 -640 0
v -464 -624 0
v -448 -624 0
v -592 -656 0
v -608 -656 0
v -608 -640 0
v -592 -640 0
v -576 -656 0
v -592 -656 0
v -592 -640 0
v -576 -640 0
v -560 -656 0
v -576 -656 0
v -576 -640 0
v -560 -640 0
v -544 -656 0
v -560 -656 0
v -560 -640 0
v -544 -640 0
v -592 -704 0
v -608 -704 0
v -608 -688 0
v -592 -688 0
v -576 -704 0
v -592 -704 0
v -592 -688 0
v -576 -688 0
v -560 -704 0
v -576 -704 0
v -576 -688 0
v -560 -688 0
v -544 -704 0
v -560 -704 0
v -560 -688 0
v -544 -688 0
v -592 -720 0
v -608 -720 0
v -608 -704 0
v -592 -704 0
v -576 -720 0
v -592 -720 0
v -592 -704 0
v -576 -704 0
v -560 -720 0
v -576 -720 0
v -576 -704 0
v -560 -704 0
v -544 -720 0
v -560 -720 0
v -560 -704 0
v -544 -704 0

# Texture cooridinates (Count = 6)
vt 0 0.6444445
vt 0.8888889 0.6444445
vt 0.8888889 0.8222222
vt 0 0.8222222
vt 0 0.4666666
vt 0.8888889 0.4666666

# Normal
vn 0 0 -1

# Mesh description
g Rodrik-3_mesh_0032

# Faces
f 1/1/1 2/2/1 3/3/1 4/4/1
f 5/1/1 6/2/1 7/3/1 8/4/1
f 9/1/1 10/2/1 11/3/1 12/4/1
f 13/1/1 14/2/1 15/3/1 16/4/1
f 17/5/1 18/6/1 19/2/1 20/1/1
f 21/5/1 22/6/1 23/2/1 24/1/1
f 25/5/1 26/6/1 27/2/1 28/1/1
f 29/5/1 30/6/1 31/2/1 32/1/1
f 33/1/1 34/2/1 35/3/1 36/4/1
f 37/1/1 38/2/1 39/3/1 40/4/1
f 41/1/1 42/2/1 43/3/1 44/4/1
f 45/1/1 46/2/1 47/3/1 48/4/1
f 49/1/1 50/2/1 51/3/1 52/4/1
f 53/1/1 54/2/1 55/3/1 56/4/1
f 57/5/1 58/6/1 59/2/1 60/1/1
f 61/5/1 62/6/1 63/2/1 64/1/1
f 65/5/1 66/6/1 67/2/1 68/1/1
f 69/5/1 70/6/1 71/2/1 72/1/1
f 73/1/1 74/2/1 75/3/1 76/4/1
f 77/1/1 78/2/1 79/3/1 80/4/1
f 81/5/1 82/6/1 83/2/1 84/1/1
f 85/5/1 86/6/1 87/2/1 88/1/1
f 89/5/1 90/6/1 91/2/1 92/1/1
f 93/5/1 94/6/1 95/2/1 96/1/1
f 97/1/1 98/2/1 99/3/1 100/4/1
f 101/1/1 102/2/1 103/3/1 104/4/1
f 105/1/1 106/2/1 107/3/1 108/4/1
f 109/1/1 110/2/1 111/3/1 112/4/1
f 113/5/1 114/6/1 115/2/1 116/1/1
f 117/5/1 118/6/1 119/2/1 120/1/1
f 121/1/1 122/2/1 123/3/1 124/4/1
f 125/1/1 126/2/1 127/3/1 128/4/1
f 129/1/1 130/2/1 131/3/1 132/4/1
f 133/1/1 134/2/1 135/3/1 136/4/1
f 137/5/1 138/6/1 139/2/1 140/1/1
f 141/5/1 142/6/1 143/2/1 144/1/1
f 145/5/1 146/6/1 147/2/1 148/1/1
f 149/5/1 150/6/1 151/2/1 152/1/1
f 153/5/1 154/6/1 155/2/1 156/1/1
f 157/5/1 158/6/1 159/2/1 160/1/1
f 161/1/1 162/2/1 163/3/1 164/4/1
f 165/1/1 166/2/1 167/3/1 168/4/1
f 169/1/1 170/2/1 171/3/1 172/4/1
f 173/1/1 174/2/1 175/3/1 176/4/1
f 177/5/1 178/6/1 179/2/1 180/1/1
f 181/5/1 182/6/1 183/2/1 184/1/1
f 185/5/1 186/6/1 187/2/1 188/1/1
f 189/5/1 190/6/1 191/2/1 192/1/1

