# Tiled2Unity generated file. Do not modify by hand.
# Wavefront file for 'Rodrik-3_mesh_0014.obj'

# Vertices (Count = 844)
v -736 -464 0
v -752 -464 0
v -752 -448 0
v -736 -448 0
v -720 -464 0
v -736 -464 0
v -736 -448 0
v -720 -448 0
v -736 -480 0
v -752 -480 0
v -752 -464 0
v -736 -464 0
v -720 -480 0
v -736 -480 0
v -736 -464 0
v -720 -464 0
v -416 -480 0
v -432 -480 0
v -432 -464 0
v -416 -464 0
v -400 -480 0
v -416 -480 0
v -416 -464 0
v -400 -464 0
v -736 -496 0
v -752 -496 0
v -752 -480 0
v -736 -480 0
v -720 -496 0
v -736 -496 0
v -736 -480 0
v -720 -480 0
v -416 -496 0
v -432 -496 0
v -432 -480 0
v -416 -480 0
v -400 -496 0
v -416 -496 0
v -416 -480 0
v -400 -480 0
v -416 -512 0
v -432 -512 0
v -432 -496 0
v -416 -496 0
v -400 -512 0
v -416 -512 0
v -416 -496 0
v -400 -496 0
v -320 -512 0
v -336 -512 0
v -336 -496 0
v -320 -496 0
v -304 -512 0
v -320 -512 0
v -320 -496 0
v -304 -496 0
v -320 -528 0
v -336 -528 0
v -336 -512 0
v -320 -512 0
v -304 -528 0
v -320 -528 0
v -320 -512 0
v -304 -512 0
v -1120 -704 0
v -1136 -704 0
v -1136 -688 0
v -1120 -688 0
v -1104 -704 0
v -1120 -704 0
v -1120 -688 0
v -1104 -688 0
v -1088 -704 0
v -1104 -704 0
v -1104 -688 0
v -1088 -688 0
v -1072 -704 0
v -1088 -704 0
v -1088 -688 0
v -1072 -688 0
v -912 -704 0
v -928 -704 0
v -928 -688 0
v -912 -688 0
v -896 -704 0
v -912 -704 0
v -912 -688 0
v -896 -688 0
v -736 -704 0
v -752 -704 0
v -752 -688 0
v -736 -688 0
v -720 -704 0
v -736 -704 0
v -736 -688 0
v -720 -688 0
v -416 -704 0
v -432 -704 0
v -432 -688 0
v -416 -688 0
v -400 -704 0
v -416 -704 0
v -416 -688 0
v -400 -688 0
v -320 -704 0
v -336 -704 0
v -336 -688 0
v -320 -688 0
v -304 -704 0
v -320 -704 0
v -320 -688 0
v -304 -688 0
v -224 -704 0
v -240 -704 0
v -240 -688 0
v -224 -688 0
v -208 -704 0
v -224 -704 0
v -224 -688 0
v -208 -688 0
v -192 -704 0
v -208 -704 0
v -208 -688 0
v -192 -688 0
v -176 -704 0
v -192 -704 0
v -192 -688 0
v -176 -688 0
v -1120 -720 0
v -1136 -720 0
v -1136 -704 0
v -1120 -704 0
v -1104 -720 0
v -1120 -720 0
v -1120 -704 0
v -1104 -704 0
v -1088 -720 0
v -1104 -720 0
v -1104 -704 0
v -1088 -704 0
v -1072 -720 0
v -1088 -720 0
v -1088 -704 0
v -1072 -704 0
v -912 -720 0
v -928 -720 0
v -928 -704 0
v -912 -704 0
v -896 -720 0
v -912 -720 0
v -912 -704 0
v -896 -704 0
v -736 -720 0
v -752 -720 0
v -752 -704 0
v -736 -704 0
v -720 -720 0
v -736 -720 0
v -736 -704 0
v -720 -704 0
v -400 -720 0
v -416 -720 0
v -416 -704 0
v -400 -704 0
v -320 -720 0
v -336 -720 0
v -336 -704 0
v -320 -704 0
v -304 -720 0
v -320 -720 0
v -320 -704 0
v -304 -704 0
v -224 -720 0
v -240 -720 0
v -240 -704 0
v -224 -704 0
v -208 -720 0
v -224 -720 0
v -224 -704 0
v -208 -704 0
v -192 -720 0
v -208 -720 0
v -208 -704 0
v -192 -704 0
v -176 -720 0
v -192 -720 0
v -192 -704 0
v -176 -704 0
v -912 -736 0
v -928 -736 0
v -928 -720 0
v -912 -720 0
v -896 -736 0
v -912 -736 0
v -912 -720 0
v -896 -720 0
v -736 -736 0
v -752 -736 0
v -752 -720 0
v -736 -720 0
v -720 -736 0
v -736 -736 0
v -736 -720 0
v -720 -720 0
v -416 -736 0
v -432 -736 0
v -432 -720 0
v -416 -720 0
v -400 -736 0
v -416 -736 0
v -416 -720 0
v -400 -720 0
v -320 -736 0
v -336 -736 0
v -336 -720 0
v -320 -720 0
v -304 -736 0
v -320 -736 0
v -320 -720 0
v -304 -720 0
v -224 -736 0
v -240 -736 0
v -240 -720 0
v -224 -720 0
v -208 -736 0
v -224 -736 0
v -224 -720 0
v -208 -720 0
v -912 -752 0
v -928 -752 0
v -928 -736 0
v -912 -736 0
v -896 -752 0
v -912 -752 0
v -912 -736 0
v -896 -736 0
v -736 -752 0
v -752 -752 0
v -752 -736 0
v -736 -736 0
v -720 -752 0
v -736 -752 0
v -736 -736 0
v -720 -736 0
v -416 -752 0
v -432 -752 0
v -432 -736 0
v -416 -736 0
v -400 -752 0
v -416 -752 0
v -416 -736 0
v -400 -736 0
v -320 -752 0
v -336 -752 0
v -336 -736 0
v -320 -736 0
v -304 -752 0
v -320 -752 0
v -320 -736 0
v -304 -736 0
v -224 -752 0
v -240 -752 0
v -240 -736 0
v -224 -736 0
v -208 -752 0
v -224 -752 0
v -224 -736 0
v -208 -736 0
v -912 -768 0
v -928 -768 0
v -928 -752 0
v -912 -752 0
v -896 -768 0
v -912 -768 0
v -912 -752 0
v -896 -752 0
v -320 -768 0
v -336 -768 0
v -336 -752 0
v -320 -752 0
v -304 -768 0
v -320 -768 0
v -320 -752 0
v -304 -752 0
v -224 -768 0
v -240 -768 0
v -240 -752 0
v -224 -752 0
v -208 -768 0
v -224 -768 0
v -224 -752 0
v -208 -752 0
v -912 -784 0
v -928 -784 0
v -928 -768 0
v -912 -768 0
v -896 -784 0
v -912 -784 0
v -912 -768 0
v -896 -768 0
v -320 -784 0
v -336 -784 0
v -336 -768 0
v -320 -768 0
v -304 -784 0
v -320 -784 0
v -320 -768 0
v -304 -768 0
v -224 -784 0
v -240 -784 0
v -240 -768 0
v -224 -768 0
v -208 -784 0
v -224 -784 0
v -224 -768 0
v -208 -768 0
v -912 -800 0
v -928 -800 0
v -928 -784 0
v -912 -784 0
v -896 -800 0
v -912 -800 0
v -912 -784 0
v -896 -784 0
v -320 -800 0
v -336 -800 0
v -336 -784 0
v -320 -784 0
v -304 -800 0
v -320 -800 0
v -320 -784 0
v -304 -784 0
v -80 -800 0
v -96 -800 0
v -96 -784 0
v -80 -784 0
v -64 -800 0
v -80 -800 0
v -80 -784 0
v -64 -784 0
v -912 -816 0
v -928 -816 0
v -928 -800 0
v -912 -800 0
v -896 -816 0
v -912 -816 0
v -912 -800 0
v -896 -800 0
v -224 -816 0
v -240 -816 0
v -240 -800 0
v -224 -800 0
v -208 -816 0
v -224 -816 0
v -224 -800 0
v -208 -800 0
v -80 -816 0
v -96 -816 0
v -96 -800 0
v -80 -800 0
v -64 -816 0
v -80 -816 0
v -80 -800 0
v -64 -800 0
v -912 -832 0
v -928 -832 0
v -928 -816 0
v -912 -816 0
v -896 -832 0
v -912 -832 0
v -912 -816 0
v -896 -816 0
v -224 -832 0
v -240 -832 0
v -240 -816 0
v -224 -816 0
v -208 -832 0
v -224 -832 0
v -224 -816 0
v -208 -816 0
v -80 -832 0
v -96 -832 0
v -96 -816 0
v -80 -816 0
v -64 -832 0
v -80 -832 0
v -80 -816 0
v -64 -816 0
v -912 -848 0
v -928 -848 0
v -928 -832 0
v -912 -832 0
v -896 -848 0
v -912 -848 0
v -912 -832 0
v -896 -832 0
v -224 -848 0
v -240 -848 0
v -240 -832 0
v -224 -832 0
v -208 -848 0
v -224 -848 0
v -224 -832 0
v -208 -832 0
v -80 -848 0
v -96 -848 0
v -96 -832 0
v -80 -832 0
v -64 -848 0
v -80 -848 0
v -80 -832 0
v -64 -832 0
v -912 -864 0
v -928 -864 0
v -928 -848 0
v -912 -848 0
v -896 -864 0
v -912 -864 0
v -912 -848 0
v -896 -848 0
v -416 -864 0
v -432 -864 0
v -432 -848 0
v -416 -848 0
v -400 -864 0
v -416 -864 0
v -416 -848 0
v -400 -848 0
v -384 -864 0
v -400 -864 0
v -400 -848 0
v -384 -848 0
v -368 -864 0
v -384 -864 0
v -384 -848 0
v -368 -848 0
v -352 -864 0
v -368 -864 0
v -368 -848 0
v -352 -848 0
v -336 -864 0
v -352 -864 0
v -352 -848 0
v -336 -848 0
v -320 -864 0
v -336 -864 0
v -336 -848 0
v -320 -848 0
v -304 -864 0
v -320 -864 0
v -320 -848 0
v -304 -848 0
v -224 -864 0
v -240 -864 0
v -240 -848 0
v -224 -848 0
v -208 -864 0
v -224 -864 0
v -224 -848 0
v -208 -848 0
v -80 -864 0
v -96 -864 0
v -96 -848 0
v -80 -848 0
v -64 -864 0
v -80 -864 0
v -80 -848 0
v -64 -848 0
v -912 -880 0
v -928 -880 0
v -928 -864 0
v -912 -864 0
v -896 -880 0
v -912 -880 0
v -912 -864 0
v -896 -864 0
v -416 -880 0
v -432 -880 0
v -432 -864 0
v -416 -864 0
v -400 -880 0
v -416 -880 0
v -416 -864 0
v -400 -864 0
v -384 -880 0
v -400 -880 0
v -400 -864 0
v -384 -864 0
v -368 -880 0
v -384 -880 0
v -384 -864 0
v -368 -864 0
v -352 -880 0
v -368 -880 0
v -368 -864 0
v -352 -864 0
v -336 -880 0
v -352 -880 0
v -352 -864 0
v -336 -864 0
v -320 -880 0
v -336 -880 0
v -336 -864 0
v -320 -864 0
v -304 -880 0
v -320 -880 0
v -320 -864 0
v -304 -864 0
v -224 -880 0
v -240 -880 0
v -240 -864 0
v -224 -864 0
v -208 -880 0
v -224 -880 0
v -224 -864 0
v -208 -864 0
v -80 -880 0
v -96 -880 0
v -96 -864 0
v -80 -864 0
v -64 -880 0
v -80 -880 0
v -80 -864 0
v -64 -864 0
v -912 -896 0
v -928 -896 0
v -928 -880 0
v -912 -880 0
v -896 -896 0
v -912 -896 0
v -912 -880 0
v -896 -880 0
v -416 -896 0
v -432 -896 0
v -432 -880 0
v -416 -880 0
v -400 -896 0
v -416 -896 0
v -416 -880 0
v -400 -880 0
v -384 -896 0
v -400 -896 0
v -400 -880 0
v -384 -880 0
v -368 -896 0
v -384 -896 0
v -384 -880 0
v -368 -880 0
v -352 -896 0
v -368 -896 0
v -368 -880 0
v -352 -880 0
v -336 -896 0
v -352 -896 0
v -352 -880 0
v -336 -880 0
v -320 -896 0
v -336 -896 0
v -336 -880 0
v -320 -880 0
v -304 -896 0
v -320 -896 0
v -320 -880 0
v -304 -880 0
v -80 -896 0
v -96 -896 0
v -96 -880 0
v -80 -880 0
v -64 -896 0
v -80 -896 0
v -80 -880 0
v -64 -880 0
v -912 -912 0
v -928 -912 0
v -928 -896 0
v -912 -896 0
v -896 -912 0
v -912 -912 0
v -912 -896 0
v -896 -896 0
v -112 -912 0
v -128 -912 0
v -128 -896 0
v -112 -896 0
v -96 -912 0
v -112 -912 0
v -112 -896 0
v -96 -896 0
v -912 -928 0
v -928 -928 0
v -928 -912 0
v -912 -912 0
v -896 -928 0
v -912 -928 0
v -912 -912 0
v -896 -912 0
v -112 -928 0
v -128 -928 0
v -128 -912 0
v -112 -912 0
v -96 -928 0
v -112 -928 0
v -112 -912 0
v -96 -912 0
v -768 -944 0
v -784 -944 0
v -784 -928 0
v -768 -928 0
v -752 -944 0
v -768 -944 0
v -768 -928 0
v -752 -928 0
v -736 -944 0
v -752 -944 0
v -752 -928 0
v -736 -928 0
v -720 -944 0
v -736 -944 0
v -736 -928 0
v -720 -928 0
v -768 -960 0
v -784 -960 0
v -784 -944 0
v -768 -944 0
v -752 -960 0
v -768 -960 0
v -768 -944 0
v -752 -944 0
v -736 -960 0
v -752 -960 0
v -752 -944 0
v -736 -944 0
v -720 -960 0
v -736 -960 0
v -736 -944 0
v -720 -944 0
v -256 -976 0
v -272 -976 0
v -272 -960 0
v -256 -960 0
v -240 -976 0
v -256 -976 0
v -256 -960 0
v -240 -960 0
v -176 -976 0
v -192 -976 0
v -192 -960 0
v -176 -960 0
v -160 -976 0
v -176 -976 0
v -176 -960 0
v -160 -960 0
v -256 -992 0
v -272 -992 0
v -272 -976 0
v -256 -976 0
v -240 -992 0
v -256 -992 0
v -256 -976 0
v -240 -976 0
v -176 -992 0
v -192 -992 0
v -192 -976 0
v -176 -976 0
v -160 -992 0
v -176 -992 0
v -176 -976 0
v -160 -976 0
v -1072 -1024 0
v -1088 -1024 0
v -1088 -1008 0
v -1072 -1008 0
v -1056 -1024 0
v -1072 -1024 0
v -1072 -1008 0
v -1056 -1008 0
v -1040 -1024 0
v -1056 -1024 0
v -1056 -1008 0
v -1040 -1008 0
v -1024 -1024 0
v -1040 -1024 0
v -1040 -1008 0
v -1024 -1008 0
v -1008 -1024 0
v -1024 -1024 0
v -1024 -1008 0
v -1008 -1008 0
v -992 -1024 0
v -1008 -1024 0
v -1008 -1008 0
v -992 -1008 0
v -976 -1024 0
v -992 -1024 0
v -992 -1008 0
v -976 -1008 0
v -960 -1024 0
v -976 -1024 0
v -976 -1008 0
v -960 -1008 0
v -944 -1024 0
v -960 -1024 0
v -960 -1008 0
v -944 -1008 0
v -928 -1024 0
v -944 -1024 0
v -944 -1008 0
v -928 -1008 0
v -912 -1024 0
v -928 -1024 0
v -928 -1008 0
v -912 -1008 0
v -896 -1024 0
v -912 -1024 0
v -912 -1008 0
v -896 -1008 0
v -208 -1024 0
v -224 -1024 0
v -224 -1008 0
v -208 -1008 0
v -192 -1024 0
v -208 -1024 0
v -208 -1008 0
v -192 -1008 0
v -1072 -1040 0
v -1088 -1040 0
v -1088 -1024 0
v -1072 -1024 0
v -1056 -1040 0
v -1072 -1040 0
v -1072 -1024 0
v -1056 -1024 0
v -1040 -1040 0
v -1056 -1040 0
v -1056 -1024 0
v -1040 -1024 0
v -1024 -1040 0
v -1040 -1040 0
v -1040 -1024 0
v -1024 -1024 0
v -1008 -1040 0
v -1024 -1040 0
v -1024 -1024 0
v -1008 -1024 0
v -992 -1040 0
v -1008 -1040 0
v -1008 -1024 0
v -992 -1024 0
v -976 -1040 0
v -992 -1040 0
v -992 -1024 0
v -976 -1024 0
v -960 -1040 0
v -976 -1040 0
v -976 -1024 0
v -960 -1024 0
v -944 -1040 0
v -960 -1040 0
v -960 -1024 0
v -944 -1024 0
v -928 -1040 0
v -944 -1040 0
v -944 -1024 0
v -928 -1024 0
v -912 -1040 0
v -928 -1040 0
v -928 -1024 0
v -912 -1024 0
v -896 -1040 0
v -912 -1040 0
v -912 -1024 0
v -896 -1024 0
v -944 -1072 0
v -960 -1072 0
v -960 -1056 0
v -944 -1056 0
v -928 -1072 0
v -944 -1072 0
v -944 -1056 0
v -928 -1056 0
v -912 -1072 0
v -928 -1072 0
v -928 -1056 0
v -912 -1056 0
v -896 -1072 0
v -912 -1072 0
v -912 -1056 0
v -896 -1056 0
v -256 -1072 0
v -272 -1072 0
v -272 -1056 0
v -256 -1056 0
v -240 -1072 0
v -256 -1072 0
v -256 -1056 0
v -240 -1056 0
v -944 -1088 0
v -960 -1088 0
v -960 -1072 0
v -944 -1072 0
v -928 -1088 0
v -944 -1088 0
v -944 -1072 0
v -928 -1072 0
v -912 -1088 0
v -928 -1088 0
v -928 -1072 0
v -912 -1072 0
v -896 -1088 0
v -912 -1088 0
v -912 -1072 0
v -896 -1072 0
v -944 -1120 0
v -960 -1120 0
v -960 -1104 0
v -944 -1104 0
v -928 -1120 0
v -944 -1120 0
v -944 -1104 0
v -928 -1104 0
v -912 -1120 0
v -928 -1120 0
v -928 -1104 0
v -912 -1104 0
v -896 -1120 0
v -912 -1120 0
v -912 -1104 0
v -896 -1104 0
v -944 -1136 0
v -960 -1136 0
v -960 -1120 0
v -944 -1120 0
v -928 -1136 0
v -944 -1136 0
v -944 -1120 0
v -928 -1120 0
v -912 -1136 0
v -928 -1136 0
v -928 -1120 0
v -912 -1120 0
v -896 -1136 0
v -912 -1136 0
v -912 -1120 0
v -896 -1120 0

# Texture cooridinates (Count = 9)
vt 0.48 0.36
vt 0.64 0.36
vt 0.64 0.52
vt 0.48 0.52
vt 0.32 0.36
vt 0.32 0.52
vt 0.48 0.2
vt 0.64 0.2
vt 0.32 0.2

# Normal
vn 0 0 -1

# Mesh description
g Rodrik-3_mesh_0014

# Faces
f 1/1/1 2/2/1 3/3/1 4/4/1
f 5/5/1 6/1/1 7/4/1 8/6/1
f 9/7/1 10/8/1 11/2/1 12/1/1
f 13/9/1 14/7/1 15/1/1 16/5/1
f 17/1/1 18/2/1 19/3/1 20/4/1
f 21/5/1 22/1/1 23/4/1 24/6/1
f 25/1/1 26/2/1 27/3/1 28/4/1
f 29/5/1 30/1/1 31/4/1 32/6/1
f 33/7/1 34/8/1 35/2/1 36/1/1
f 37/9/1 38/7/1 39/1/1 40/5/1
f 41/1/1 42/2/1 43/3/1 44/4/1
f 45/5/1 46/1/1 47/4/1 48/6/1
f 49/1/1 50/2/1 51/3/1 52/4/1
f 53/5/1 54/1/1 55/4/1 56/6/1
f 57/7/1 58/8/1 59/2/1 60/1/1
f 61/9/1 62/7/1 63/1/1 64/5/1
f 65/1/1 66/2/1 67/3/1 68/4/1
f 69/5/1 70/1/1 71/4/1 72/6/1
f 73/1/1 74/2/1 75/3/1 76/4/1
f 77/5/1 78/1/1 79/4/1 80/6/1
f 81/1/1 82/2/1 83/3/1 84/4/1
f 85/5/1 86/1/1 87/4/1 88/6/1
f 89/1/1 90/2/1 91/3/1 92/4/1
f 93/5/1 94/1/1 95/4/1 96/6/1
f 97/1/1 98/2/1 99/3/1 100/4/1
f 101/5/1 102/1/1 103/4/1 104/6/1
f 105/1/1 106/2/1 107/3/1 108/4/1
f 109/5/1 110/1/1 111/4/1 112/6/1
f 113/1/1 114/2/1 115/3/1 116/4/1
f 117/5/1 118/1/1 119/4/1 120/6/1
f 121/1/1 122/2/1 123/3/1 124/4/1
f 125/5/1 126/1/1 127/4/1 128/6/1
f 129/7/1 130/8/1 131/2/1 132/1/1
f 133/9/1 134/7/1 135/1/1 136/5/1
f 137/7/1 138/8/1 139/2/1 140/1/1
f 141/9/1 142/7/1 143/1/1 144/5/1
f 145/7/1 146/8/1 147/2/1 148/1/1
f 149/9/1 150/7/1 151/1/1 152/5/1
f 153/7/1 154/8/1 155/2/1 156/1/1
f 157/9/1 158/7/1 159/1/1 160/5/1
f 161/9/1 162/7/1 163/1/1 164/5/1
f 165/7/1 166/8/1 167/2/1 168/1/1
f 169/9/1 170/7/1 171/1/1 172/5/1
f 173/7/1 174/8/1 175/2/1 176/1/1
f 177/9/1 178/7/1 179/1/1 180/5/1
f 181/7/1 182/8/1 183/2/1 184/1/1
f 185/9/1 186/7/1 187/1/1 188/5/1
f 189/1/1 190/2/1 191/3/1 192/4/1
f 193/5/1 194/1/1 195/4/1 196/6/1
f 197/1/1 198/2/1 199/3/1 200/4/1
f 201/5/1 202/1/1 203/4/1 204/6/1
f 205/1/1 206/2/1 207/3/1 208/4/1
f 209/5/1 210/1/1 211/4/1 212/6/1
f 213/1/1 214/2/1 215/3/1 216/4/1
f 217/5/1 218/1/1 219/4/1 220/6/1
f 221/1/1 222/2/1 223/3/1 224/4/1
f 225/5/1 226/1/1 227/4/1 228/6/1
f 229/7/1 230/8/1 231/2/1 232/1/1
f 233/9/1 234/7/1 235/1/1 236/5/1
f 237/7/1 238/8/1 239/2/1 240/1/1
f 241/9/1 242/7/1 243/1/1 244/5/1
f 245/7/1 246/8/1 247/2/1 248/1/1
f 249/9/1 250/7/1 251/1/1 252/5/1
f 253/7/1 254/8/1 255/2/1 256/1/1
f 257/9/1 258/7/1 259/1/1 260/5/1
f 261/7/1 262/8/1 263/2/1 264/1/1
f 265/9/1 266/7/1 267/1/1 268/5/1
f 269/1/1 270/2/1 271/3/1 272/4/1
f 273/5/1 274/1/1 275/4/1 276/6/1
f 277/1/1 278/2/1 279/3/1 280/4/1
f 281/5/1 282/1/1 283/4/1 284/6/1
f 285/1/1 286/2/1 287/3/1 288/4/1
f 289/5/1 290/1/1 291/4/1 292/6/1
f 293/7/1 294/8/1 295/2/1 296/1/1
f 297/9/1 298/7/1 299/1/1 300/5/1
f 301/7/1 302/8/1 303/2/1 304/1/1
f 305/9/1 306/7/1 307/1/1 308/5/1
f 309/7/1 310/8/1 311/2/1 312/1/1
f 313/9/1 314/7/1 315/1/1 316/5/1
f 317/1/1 318/2/1 319/3/1 320/4/1
f 321/5/1 322/1/1 323/4/1 324/6/1
f 325/1/1 326/2/1 327/3/1 328/4/1
f 329/5/1 330/1/1 331/4/1 332/6/1
f 333/1/1 334/2/1 335/3/1 336/4/1
f 337/5/1 338/1/1 339/4/1 340/6/1
f 341/7/1 342/8/1 343/2/1 344/1/1
f 345/9/1 346/7/1 347/1/1 348/5/1
f 349/1/1 350/2/1 351/3/1 352/4/1
f 353/5/1 354/1/1 355/4/1 356/6/1
f 357/7/1 358/8/1 359/2/1 360/1/1
f 361/9/1 362/7/1 363/1/1 364/5/1
f 365/1/1 366/2/1 367/3/1 368/4/1
f 369/5/1 370/1/1 371/4/1 372/6/1
f 373/7/1 374/8/1 375/2/1 376/1/1
f 377/9/1 378/7/1 379/1/1 380/5/1
f 381/1/1 382/2/1 383/3/1 384/4/1
f 385/5/1 386/1/1 387/4/1 388/6/1
f 389/7/1 390/8/1 391/2/1 392/1/1
f 393/9/1 394/7/1 395/1/1 396/5/1
f 397/1/1 398/2/1 399/3/1 400/4/1
f 401/5/1 402/1/1 403/4/1 404/6/1
f 405/7/1 406/8/1 407/2/1 408/1/1
f 409/9/1 410/7/1 411/1/1 412/5/1
f 413/1/1 414/2/1 415/3/1 416/4/1
f 417/5/1 418/1/1 419/4/1 420/6/1
f 421/1/1 422/2/1 423/3/1 424/4/1
f 425/5/1 426/1/1 427/4/1 428/6/1
f 429/1/1 430/2/1 431/3/1 432/4/1
f 433/5/1 434/1/1 435/4/1 436/6/1
f 437/1/1 438/2/1 439/3/1 440/4/1
f 441/5/1 442/1/1 443/4/1 444/6/1
f 445/1/1 446/2/1 447/3/1 448/4/1
f 449/5/1 450/1/1 451/4/1 452/6/1
f 453/7/1 454/8/1 455/2/1 456/1/1
f 457/9/1 458/7/1 459/1/1 460/5/1
f 461/1/1 462/2/1 463/3/1 464/4/1
f 465/5/1 466/1/1 467/4/1 468/6/1
f 469/7/1 470/8/1 471/2/1 472/1/1
f 473/9/1 474/7/1 475/1/1 476/5/1
f 477/7/1 478/8/1 479/2/1 480/1/1
f 481/9/1 482/7/1 483/1/1 484/5/1
f 485/7/1 486/8/1 487/2/1 488/1/1
f 489/9/1 490/7/1 491/1/1 492/5/1
f 493/7/1 494/8/1 495/2/1 496/1/1
f 497/9/1 498/7/1 499/1/1 500/5/1
f 501/7/1 502/8/1 503/2/1 504/1/1
f 505/9/1 506/7/1 507/1/1 508/5/1
f 509/1/1 510/2/1 511/3/1 512/4/1
f 513/5/1 514/1/1 515/4/1 516/6/1
f 517/7/1 518/8/1 519/2/1 520/1/1
f 521/9/1 522/7/1 523/1/1 524/5/1
f 525/1/1 526/2/1 527/3/1 528/4/1
f 529/5/1 530/1/1 531/4/1 532/6/1
f 533/1/1 534/2/1 535/3/1 536/4/1
f 537/5/1 538/1/1 539/4/1 540/6/1
f 541/1/1 542/2/1 543/3/1 544/4/1
f 545/5/1 546/1/1 547/4/1 548/6/1
f 549/1/1 550/2/1 551/3/1 552/4/1
f 553/5/1 554/1/1 555/4/1 556/6/1
f 557/1/1 558/2/1 559/3/1 560/4/1
f 561/5/1 562/1/1 563/4/1 564/6/1
f 565/1/1 566/2/1 567/3/1 568/4/1
f 569/5/1 570/1/1 571/4/1 572/6/1
f 573/7/1 574/8/1 575/2/1 576/1/1
f 577/9/1 578/7/1 579/1/1 580/5/1
f 581/1/1 582/2/1 583/3/1 584/4/1
f 585/5/1 586/1/1 587/4/1 588/6/1
f 589/1/1 590/2/1 591/3/1 592/4/1
f 593/5/1 594/1/1 595/4/1 596/6/1
f 597/7/1 598/8/1 599/2/1 600/1/1
f 601/9/1 602/7/1 603/1/1 604/5/1
f 605/1/1 606/2/1 607/3/1 608/4/1
f 609/5/1 610/1/1 611/4/1 612/6/1
f 613/1/1 614/2/1 615/3/1 616/4/1
f 617/5/1 618/1/1 619/4/1 620/6/1
f 621/7/1 622/8/1 623/2/1 624/1/1
f 625/9/1 626/7/1 627/1/1 628/5/1
f 629/7/1 630/8/1 631/2/1 632/1/1
f 633/9/1 634/7/1 635/1/1 636/5/1
f 637/1/1 638/2/1 639/3/1 640/4/1
f 641/5/1 642/1/1 643/4/1 644/6/1
f 645/1/1 646/2/1 647/3/1 648/4/1
f 649/5/1 650/1/1 651/4/1 652/6/1
f 653/7/1 654/8/1 655/2/1 656/1/1
f 657/9/1 658/7/1 659/1/1 660/5/1
f 661/7/1 662/8/1 663/2/1 664/1/1
f 665/9/1 666/7/1 667/1/1 668/5/1
f 669/1/1 670/2/1 671/3/1 672/4/1
f 673/5/1 674/1/1 675/4/1 676/6/1
f 677/1/1 678/2/1 679/3/1 680/4/1
f 681/5/1 682/1/1 683/4/1 684/6/1
f 685/1/1 686/2/1 687/3/1 688/4/1
f 689/5/1 690/1/1 691/4/1 692/6/1
f 693/1/1 694/2/1 695/3/1 696/4/1
f 697/5/1 698/1/1 699/4/1 700/6/1
f 701/1/1 702/2/1 703/3/1 704/4/1
f 705/5/1 706/1/1 707/4/1 708/6/1
f 709/1/1 710/2/1 711/3/1 712/4/1
f 713/5/1 714/1/1 715/4/1 716/6/1
f 717/1/1 718/2/1 719/3/1 720/4/1
f 721/5/1 722/1/1 723/4/1 724/6/1
f 725/7/1 726/8/1 727/2/1 728/1/1
f 729/9/1 730/7/1 731/1/1 732/5/1
f 733/7/1 734/8/1 735/2/1 736/1/1
f 737/9/1 738/7/1 739/1/1 740/5/1
f 741/7/1 742/8/1 743/2/1 744/1/1
f 745/9/1 746/7/1 747/1/1 748/5/1
f 749/7/1 750/8/1 751/2/1 752/1/1
f 753/9/1 754/7/1 755/1/1 756/5/1
f 757/7/1 758/8/1 759/2/1 760/1/1
f 761/9/1 762/7/1 763/1/1 764/5/1
f 765/7/1 766/8/1 767/2/1 768/1/1
f 769/9/1 770/7/1 771/1/1 772/5/1
f 773/1/1 774/2/1 775/3/1 776/4/1
f 777/5/1 778/1/1 779/4/1 780/6/1
f 781/1/1 782/2/1 783/3/1 784/4/1
f 785/5/1 786/1/1 787/4/1 788/6/1
f 789/1/1 790/2/1 791/3/1 792/4/1
f 793/5/1 794/1/1 795/4/1 796/6/1
f 797/7/1 798/8/1 799/2/1 800/1/1
f 801/9/1 802/7/1 803/1/1 804/5/1
f 805/7/1 806/8/1 807/2/1 808/1/1
f 809/9/1 810/7/1 811/1/1 812/5/1
f 813/1/1 814/2/1 815/3/1 816/4/1
f 817/5/1 818/1/1 819/4/1 820/6/1
f 821/1/1 822/2/1 823/3/1 824/4/1
f 825/5/1 826/1/1 827/4/1 828/6/1
f 829/7/1 830/8/1 831/2/1 832/1/1
f 833/9/1 834/7/1 835/1/1 836/5/1
f 837/7/1 838/8/1 839/2/1 840/1/1
f 841/9/1 842/7/1 843/1/1 844/5/1

