# Tiled2Unity generated file. Do not modify by hand.
# Wavefront file for 'Rodrik-3_mesh_0011.obj'

# Vertices (Count = 100)
v -48 -448 0
v -64 -448 0
v -64 -432 0
v -48 -432 0
v -32 -448 0
v -48 -448 0
v -48 -432 0
v -32 -432 0
v -16 -448 0
v -32 -448 0
v -32 -432 0
v -16 -432 0
v -48 -464 0
v -64 -464 0
v -64 -448 0
v -48 -448 0
v -32 -464 0
v -48 -464 0
v -48 -448 0
v -32 -448 0
v -16 -464 0
v -32 -464 0
v -32 -448 0
v -16 -448 0
v -96 -832 0
v -112 -832 0
v -112 -816 0
v -96 -816 0
v -1120 -848 0
v -1136 -848 0
v -1136 -832 0
v -1120 -832 0
v -1104 -848 0
v -1120 -848 0
v -1120 -832 0
v -1104 -832 0
v -1088 -848 0
v -1104 -848 0
v -1104 -832 0
v -1088 -832 0
v -1072 -848 0
v -1088 -848 0
v -1088 -832 0
v -1072 -832 0
v -416 -848 0
v -432 -848 0
v -432 -832 0
v -416 -832 0
v -400 -848 0
v -416 -848 0
v -416 -832 0
v -400 -832 0
v -384 -848 0
v -400 -848 0
v -400 -832 0
v -384 -832 0
v -368 -848 0
v -384 -848 0
v -384 -832 0
v -368 -832 0
v -352 -848 0
v -368 -848 0
v -368 -832 0
v -352 -832 0
v -336 -848 0
v -352 -848 0
v -352 -832 0
v -336 -832 0
v -320 -848 0
v -336 -848 0
v -336 -832 0
v -320 -832 0
v -304 -848 0
v -320 -848 0
v -320 -832 0
v -304 -832 0
v -288 -848 0
v -304 -848 0
v -304 -832 0
v -288 -832 0
v -96 -848 0
v -112 -848 0
v -112 -832 0
v -96 -832 0
v -736 -864 0
v -752 -864 0
v -752 -848 0
v -736 -848 0
v -720 -864 0
v -736 -864 0
v -736 -848 0
v -720 -848 0
v -736 -880 0
v -752 -880 0
v -752 -864 0
v -736 -864 0
v -720 -880 0
v -736 -880 0
v -736 -864 0
v -720 -864 0

# Texture cooridinates (Count = 6)
vt 0 0.5
vt 0.5 0.5
vt 0.5 1
vt 0 1
vt 0 0
vt 0.5 0

# Normal
vn 0 0 -1

# Mesh description
g Rodrik-3_mesh_0011

# Faces
f 1/1/1 2/2/1 3/3/1 4/4/1
f 5/1/1 6/2/1 7/3/1 8/4/1
f 9/1/1 10/2/1 11/3/1 12/4/1
f 13/5/1 14/6/1 15/2/1 16/1/1
f 17/5/1 18/6/1 19/2/1 20/1/1
f 21/5/1 22/6/1 23/2/1 24/1/1
f 25/1/1 26/2/1 27/3/1 28/4/1
f 29/5/1 30/6/1 31/2/1 32/1/1
f 33/5/1 34/6/1 35/2/1 36/1/1
f 37/5/1 38/6/1 39/2/1 40/1/1
f 41/5/1 42/6/1 43/2/1 44/1/1
f 45/5/1 46/6/1 47/2/1 48/1/1
f 49/5/1 50/6/1 51/2/1 52/1/1
f 53/5/1 54/6/1 55/2/1 56/1/1
f 57/5/1 58/6/1 59/2/1 60/1/1
f 61/5/1 62/6/1 63/2/1 64/1/1
f 65/5/1 66/6/1 67/2/1 68/1/1
f 69/5/1 70/6/1 71/2/1 72/1/1
f 73/5/1 74/6/1 75/2/1 76/1/1
f 77/5/1 78/6/1 79/2/1 80/1/1
f 81/5/1 82/6/1 83/2/1 84/1/1
f 85/1/1 86/2/1 87/3/1 88/4/1
f 89/1/1 90/2/1 91/3/1 92/4/1
f 93/5/1 94/6/1 95/2/1 96/1/1
f 97/5/1 98/6/1 99/2/1 100/1/1

